<svg width="205" height="206" viewBox="0 0 205 206" fill="none" xmlns="http://www.w3.org/2000/svg">
<mask id="mask0_0_382" style="mask-type:luminance" maskUnits="userSpaceOnUse" x="0" y="0" width="205" height="206">
<circle cx="102.525" cy="103.259" r="102.376" fill="white"/>
</mask>
<g mask="url(#mask0_0_382)">
<path d="M73.6586 186.351C73.6586 186.351 -41.3884 226.561 -51.1935 231.588C-60.9987 236.614 -130.029 255.318 -135.422 255.946C-140.815 256.574 -179.968 239.755 -188.302 236.614C-188.302 236.614 -194.185 244.823 -172.614 252.97C-172.614 252.97 -215.756 254.247 -217.227 252.97C-218.698 251.693 -229.647 267.819 -180.785 264.677L-211.344 271.798C-211.344 271.798 -222.62 287.296 -172.614 277.452C-134.372 269.925 -190.616 290.807 -177.732 299.758L-154.608 286.987L66.8664 255.49L73.6586 186.351Z" fill="#FF9763"/>
<path d="M41.2316 195.835C41.2316 195.835 20.4305 239.657 19.3182 270.104C19.3182 270.104 86.8333 260.381 119.088 242.113C151.343 223.846 191.384 146.512 41.2316 195.835Z" fill="#FFC562"/>
<path d="M96.8589 109.869L88.8 174.107L137.16 198.246L132.942 103.327L96.8589 109.869Z" fill="#FF9763"/>
<mask id="mask1_0_382" style="mask-type:luminance" maskUnits="userSpaceOnUse" x="88" y="103" width="50" height="96">
<path fill-rule="evenodd" clip-rule="evenodd" d="M96.859 109.869L88.8 174.107L137.16 198.246L132.942 103.327L96.859 109.869Z" fill="white"/>
</mask>
<g mask="url(#mask1_0_382)">
<path d="M122.181 134.021C127.821 149.342 122.268 162.328 133.369 164.642C159.177 170.019 164.594 130.389 164.594 130.389L128.415 133.474" fill="#E84B23"/>
</g>
<path d="M123.411 136.317L149.161 129.889C157.496 127.808 164.615 121.712 166.827 113.411C168.954 105.683 166.852 97.4048 161.294 91.6282L124.334 52.9951L92.6158 95.5244L106.913 120.37" fill="#FF9763"/>
<path d="M136.554 76.8335C137.894 75.775 139.838 76.0031 140.897 77.343L144.134 81.4402C145.192 82.7801 144.964 84.7243 143.624 85.7827C142.284 86.8412 140.34 86.6131 139.282 85.2732L136.045 81.176C134.986 79.8361 135.214 77.8919 136.554 76.8334L136.554 76.8335Z" fill="#190000"/>
<path d="M132.302 67.0124C124.717 72.4762 125.486 76.8025 130.45 73.6962C135.414 70.5899 137.257 63.4426 132.302 67.0124Z" fill="#190000"/>
<path d="M145.696 76.3741C159.145 75.043 163.272 87.0536 155.313 89.7128L145.696 76.3741Z" fill="#FF9763"/>
<ellipse cx="128.648" cy="90.3466" rx="9.05561" ry="7.28625" transform="rotate(-22.8714 128.648 90.3466)" fill="#E84B23"/>
<path d="M141.204 92.8928C146.827 95.6858 150.189 91.7076 150.189 91.7076" stroke="#993443" stroke-width="3.17007" stroke-linecap="round" stroke-linejoin="round"/>
<path d="M112.767 106.362C110.847 105.316 108.469 105.651 106.912 107.187C105.351 108.79 105.16 111.28 106.459 113.103C107.172 114.093 108.198 114.938 109.439 115.13C109.906 115.241 110.398 115.177 110.821 114.95C111.231 114.71 111.53 114.316 111.65 113.856C111.771 113.396 111.704 112.907 111.464 112.497C111.233 112.088 110.846 111.791 110.392 111.673C110.161 111.637 109.934 111.572 109.718 111.481L110.147 111.662C109.934 111.565 109.733 111.446 109.547 111.305L109.91 111.586C109.689 111.411 109.49 111.21 109.317 110.987L109.597 111.35C109.428 111.123 109.285 110.876 109.173 110.616L109.354 111.045C109.247 110.784 109.173 110.511 109.133 110.232L109.197 110.709C109.169 110.478 109.167 110.244 109.192 110.012L109.128 110.489C109.159 110.257 109.218 110.031 109.305 109.814L109.124 110.242C109.214 110.036 109.327 109.841 109.461 109.661L109.181 110.024C109.333 109.83 109.508 109.654 109.7 109.5L109.337 109.78C109.571 109.601 109.826 109.452 110.097 109.337L109.668 109.518C109.941 109.407 110.227 109.33 110.519 109.289L110.043 109.353C110.311 109.32 110.582 109.32 110.85 109.353L110.373 109.289C110.617 109.324 110.856 109.39 111.083 109.484L110.655 109.303C110.758 109.35 110.859 109.401 110.957 109.458C111.51 109.781 112.193 109.785 112.75 109.468C113.306 109.151 113.651 108.56 113.655 107.92C113.658 107.279 113.319 106.686 112.766 106.362L112.767 106.362Z" fill="#190000"/>
<path d="M116.545 104.833C128.428 96.7713 104.24 79.091 126.578 68.391C148.917 57.691 160.663 -2.44608 134.004 25.32C107.344 53.0861 105.661 -2.41777 97.5369 28.7229C89.413 59.8636 92.6271 74.225 71.7371 85.2913C50.8471 96.3576 79.6397 134.735 100.381 134.193C121.123 133.651 116.545 104.833 116.545 104.833Z" fill="#3A3530"/>
<path d="M123.395 98.4779C84.3075 96.9694 89.0876 129.485 123.224 123.876L123.395 98.4779Z" fill="#FF9763"/>
<path d="M-37.5586 290.18C2.97828 328.564 73.5338 369.319 92.6157 366.464C92.6157 366.464 154.695 214.301 136 172.143L94.6517 142.592C94.6517 142.592 20.5144 196.381 -37.5586 290.18Z" fill="#FFC562"/>
<mask id="mask2_0_382" style="mask-type:luminance" maskUnits="userSpaceOnUse" x="-38" y="142" width="178" height="225">
<path fill-rule="evenodd" clip-rule="evenodd" d="M-37.5586 290.18C2.97827 328.564 73.5338 369.319 92.6157 366.464C92.6157 366.464 154.695 214.301 136 172.143L94.6517 142.592C94.6517 142.592 20.5144 196.381 -37.5586 290.18Z" fill="white"/>
</mask>
<g mask="url(#mask2_0_382)">
<path d="M82.9384 145.368C86.9077 148.59 139.51 191.994 139.51 191.994L149.328 161.508L99.3025 140.884" fill="#F0F3FC"/>
</g>
<path d="M31.2434 165.569C31.2434 165.569 -83.8035 205.779 -93.6087 210.805C-103.414 215.832 -172.444 234.536 -177.837 235.164C-183.23 235.792 -222.383 218.973 -230.717 215.832C-230.717 215.832 -236.6 224.041 -215.029 232.188C-215.029 232.188 -258.172 233.465 -259.642 232.188C-261.113 230.911 -272.062 247.036 -223.2 243.895L-253.759 251.015C-253.759 251.015 -265.035 266.513 -215.029 256.67C-176.788 249.143 -233.032 270.025 -220.147 278.975L-197.023 266.205L24.4512 234.707L31.2434 165.569Z" fill="#FF9763"/>
<mask id="mask3_0_382" style="mask-type:luminance" maskUnits="userSpaceOnUse" x="-262" y="165" width="294" height="114">
<path fill-rule="evenodd" clip-rule="evenodd" d="M31.2434 165.569C31.2434 165.569 -83.8035 205.779 -93.6087 210.805C-103.414 215.832 -172.444 234.536 -177.837 235.164C-183.23 235.792 -222.383 218.973 -230.717 215.832C-230.717 215.832 -236.6 224.041 -215.029 232.188C-215.029 232.188 -258.172 233.465 -259.642 232.188C-261.113 230.911 -272.062 247.036 -223.2 243.895L-253.759 251.015C-253.759 251.015 -265.035 266.513 -215.029 256.67C-176.788 249.143 -233.032 270.025 -220.147 278.975L-197.023 266.205L24.4512 234.707L31.2434 165.569Z" fill="white"/>
</mask>
<g mask="url(#mask3_0_382)">
<path d="M11.3109 172.815C-2.13171 151.212 -35.9882 245.946 -44.5066 250.179C-53.0251 254.411 4.36176 255.308 4.36176 255.308L22.0054 168.008" fill="#E84B23"/>
</g>
<path d="M-1.18352 175.053C-1.18352 175.053 -21.9847 218.875 -23.0969 249.321C-23.0969 249.321 44.4182 239.598 76.673 221.331C108.928 203.063 148.968 125.73 -1.18352 175.053Z" fill="#FFC562"/>
<mask id="mask4_0_382" style="mask-type:luminance" maskUnits="userSpaceOnUse" x="-24" y="158" width="131" height="92">
<path fill-rule="evenodd" clip-rule="evenodd" d="M-1.18351 175.053C-1.18351 175.053 -21.9847 218.875 -23.0969 249.321C-23.0969 249.321 44.4182 239.598 76.673 221.331C108.928 203.063 148.968 125.73 -1.18351 175.053Z" fill="white"/>
</mask>
<g mask="url(#mask4_0_382)">
<path d="M27.0002 151.268C5.48027 186.238 5.374 266.041 5.374 266.041L-51.7699 248.222L-23.097 142.592" fill="#F0F3FC"/>
</g>
<path d="M108.138 53.8625C110.941 54.1797 113.752 52.9843 116.009 51.4099C117.195 50.5825 118.303 49.6469 119.413 48.7216C119.652 48.5222 119.892 48.3238 120.133 48.1262C120.253 48.0278 120.374 47.9299 120.496 47.8325C120.549 47.79 121.061 47.3904 120.744 47.633C121.279 47.2235 121.828 46.8353 122.398 46.476C123.253 45.9762 123.541 44.8781 123.041 44.0231C122.541 43.1682 121.443 42.8803 120.588 43.38C119.419 44.1433 118.299 44.9809 117.237 45.8876C116.737 46.3014 116.242 46.7206 115.74 47.132C115.479 47.3458 115.216 47.5571 114.951 47.7656C115.196 47.5727 114.908 47.7984 114.82 47.8639C114.696 47.9572 114.57 48.0493 114.444 48.1404C113.955 48.4943 113.448 48.8221 112.924 49.1226C112.639 49.2849 112.349 49.4373 112.053 49.5796C112.007 49.6019 111.576 49.8004 111.786 49.7066C111.991 49.6151 111.492 49.8206 111.443 49.8386C111.163 49.9409 110.879 50.0321 110.591 50.1088C110.316 50.2246 110.022 50.2876 109.723 50.2948C109.957 50.2667 109.97 50.2647 109.762 50.2888L109.615 50.3027C109.468 50.3151 109.321 50.3232 109.174 50.327C108.828 50.3341 108.482 50.3173 108.138 50.2768C107.203 50.171 106.305 51.1769 106.345 52.0695C106.393 53.1312 107.136 53.7489 108.138 53.8622L108.138 53.8625Z" fill="#190000"/>
<path d="M79.2982 98.4779C79.1115 100.337 79.2983 102.214 79.8474 104C79.9795 104.447 80.2731 104.829 80.6713 105.071C81.3009 105.439 82.0909 105.389 82.6692 104.945C83.2475 104.5 83.4988 103.75 83.3048 103.047C83.1021 102.383 82.9526 101.705 82.858 101.018L82.922 101.495C82.7909 100.494 82.778 99.4816 82.8837 98.4779C82.8838 98.0024 82.6949 97.5464 82.3586 97.2103C82.0224 96.8741 81.5664 96.6852 81.091 96.6852C80.6155 96.6852 80.1595 96.8741 79.8233 97.2103C79.508 97.5601 79.3227 98.0077 79.2982 98.4779Z" fill="#190000"/>
<path d="M111.389 105.747C109.829 106.133 108.573 107.286 108.055 108.806C107.549 110.398 107.93 112.138 109.055 113.372C109.568 113.885 110.339 114.039 111.009 113.761C111.679 113.484 112.115 112.83 112.115 112.105C112.096 111.634 111.91 111.184 111.59 110.837C111.559 110.802 111.529 110.766 111.5 110.73L111.781 111.092C111.624 110.889 111.494 110.666 111.393 110.43L111.574 110.858C111.478 110.619 111.412 110.37 111.376 110.115L111.44 110.591C111.409 110.336 111.41 110.078 111.443 109.823L111.379 110.3C111.413 110.072 111.474 109.848 111.561 109.635L111.38 110.063C111.478 109.838 111.603 109.626 111.752 109.431L111.471 109.794C111.624 109.602 111.799 109.428 111.992 109.276L111.629 109.556C111.824 109.408 112.036 109.283 112.261 109.184L111.833 109.365C111.998 109.297 112.168 109.243 112.342 109.205C113.292 108.935 113.85 107.953 113.594 106.999C113.313 106.059 112.341 105.507 111.389 105.747V105.747Z" fill="#190000"/>
<path d="M80.446 180.826C82.717 184.262 84.6826 187.89 86.3202 191.67C86.3611 191.764 86.4015 191.859 86.4423 191.953C86.6394 192.41 86.3555 191.741 86.4722 192.022C86.5608 192.236 86.6501 192.45 86.7374 192.665C86.9413 193.165 87.1393 193.668 87.3316 194.172C87.6888 195.11 88.026 196.055 88.3431 197.007C88.9933 198.96 89.5574 200.939 90.0353 202.943C90.2978 204.044 90.5333 205.151 90.742 206.264C90.8463 206.821 90.9439 207.378 91.0346 207.937C91.0841 208.242 91.1316 208.547 91.177 208.852C91.1921 208.954 91.207 209.056 91.2217 209.158C91.2329 209.235 91.3235 209.894 91.2635 209.445C91.2815 209.917 91.4678 210.367 91.7886 210.713C92.1266 211.047 92.5814 211.235 93.0563 211.238C93.9208 211.2 94.9824 210.441 94.849 209.445C93.7266 200.951 91.122 192.72 87.1536 185.126C86.0532 183.03 84.8478 180.991 83.5419 179.016C83.0257 178.235 81.9338 177.828 81.0893 178.373C80.3098 178.876 79.8932 179.989 80.4461 180.826L80.446 180.826Z" fill="#D89D35"/>
</g>
</svg>
