<?xml version="1.0" encoding="utf-8"?>
<!-- Generator: Adobe Illustrator 27.5.0, SVG Export Plug-In . SVG Version: 6.00 Build 0)  -->
<svg version="1.1" xmlns="http://www.w3.org/2000/svg" xmlns:xlink="http://www.w3.org/1999/xlink" x="0px" y="0px"
	 viewBox="0 0 750 500" style="enable-background:new 0 0 750 500;" xml:space="preserve">
<g id="BACKGROUND">
	<g>
		<rect style="fill:#160040;" width="750" height="500"/>
		<path style="opacity:0.3;fill:#351289;" d="M17.041,97.436c-6.315,5.425-12.732,11.244-14.09,18.051
			c-1.357,6.807,4.354,14.746,14.498,15.942c5.075,0.598,10.221-0.54,15.019-1.795C87.11,115.347,133.23,83.693,191.895,82.469
			c2.92-0.061,6.021-0.01,8.487,1.034c7.307,3.093,2.722,10.616-2.558,15.188C130.957,156.596,48.905,209.043,9.655,277.273
			c-3.338,5.802-5.402,13.721,2.451,17.067c3.068,1.307,6.918,1.465,10.554,1.339c25.443-0.883,46.161-13.231,65.455-24.322
			c26.487-15.227,54.463-29.301,83.691-42.105c24.758-10.846,51.148-20.964,80.35-24.285c-6.956,14.973-23.107,27.123-38.549,38.943
			c-56.025,42.885-108.339,87.924-156.598,134.819c-20.467,19.888-40.543,40.615-49.23,64.028c-2.12,5.713-2.958,12.719,3.756,16.54
			c8.395,4.778,21.232,0.828,30.05-3.6c31.087-15.61,55.775-36.053,81.541-55.497c71.021-53.595,152.545-100.998,241.844-140.622
			c29.167-12.942,59.829-25.246,93.956-30.536c4.588-0.711,9.747-1.234,13.732,0.44c8.508,3.574,3.728,12.329-2.044,17.819
			c-36.457,34.677-80.183,65.796-115.647,100.928s-62.932,75.855-60.865,118.18c0.479,9.809,4.269,21.231,17.691,25.263
			c8.438,2.535,18.26,1.291,27.186-0.34c54.159-9.894,101.634-32.165,142.062-58.148c40.428-25.983,74.728-55.825,111.017-84.395
			c50.639-39.868,106.688-78.85,133.111-128.031c3.244-6.038,5.523-13.655-1.351-18.142c-8.09-5.28-21.598-1.86-31.256,2.078
			c-64.74,26.396-116.126,64.725-171.08,99.616c-11.464,7.279-24.363,14.809-40.137,15.708
			c39.849-38.821,79.699-77.642,119.548-116.463c31.355-30.546,62.778-61.165,89.018-93.784
			c9.635-11.978,16.659-29.556-0.494-36.902c-13.591-5.821-31.244,0.169-44.731,6.096
			c-88.582,38.927-176.021,79.009-262.252,120.215c-26.266,12.551-52.932,25.386-83.54,32.298
			c-4.601,1.039-9.974,1.884-14.065,0.138c-6.545-2.793-4.581-9.436-1.456-14.179c41.731-63.347,148.079-101.054,183.004-166.206
			c1.935-3.61,3.408-8.068-0.428-10.924c-5.164-3.844-14.618-1.377-21.135,1.408c-88.225,37.694-157.92,95.202-255.316,120.975
			c42.606-34.476,85.212-68.952,127.818-103.428c8.163-6.605,16.577-13.543,19.402-21.891c2.825-8.349-1.871-18.5-13.74-21.762
			c-8.58-2.358-18.37-0.635-27.092,1.477C247.354,28.834,206.617,51.62,159.68,65.962c-14.559,4.448-36.719,6.123-42.054-3.944
			c-3.893-7.347,5.514-14.762,15.075-19.245c39.248-18.402,15.607-38.991-20.765-16.826C77.015,47.229,45.977,72.579,17.041,97.436z
			"/>
	</g>
</g>
<g id="OBJECTS">
	<g>
		<g>
			<g>
				<path style="opacity:0.26;fill:#F43B86;" d="M571.841,499.87c-1.162-23.491-1.494-47.721,6.907-69.689
					c2.196-5.743,4.965-11.255,7.128-17.011c3.381-8.999,5.199-17.89,5.147-27.503c-0.016-3.015,0.098-6.1-0.831-8.968
					c-1.485-4.581-5.768-8.126-10.547-8.726c-0.991-0.125-2.073-0.162-2.84-0.803c-0.934-0.782-1.045-2.143-1.26-3.342
					c-1.091-6.097-7.161-10.88-13.344-10.516c-1.196-5.898-8.097-9.515-13.856-7.768c-0.204-11.336-0.409-22.671-0.613-34.007
					c-0.07-3.892-0.17-7.917-1.818-11.444c-1.648-3.527-5.291-6.434-9.154-5.952c-1.989,0.248-3.786,1.347-5.271,2.693
					c-4.509,4.091-6.409,10.259-7.929,16.154c-1.903,7.383-3.751,14.888-5.061,22.399c-1.432-12.273-9.692-22.658-18.75-31.061
					c-9.059-8.403-19.322-15.667-26.843-25.47c-6.643-8.66-10.835-18.905-14.951-29.014c-7.174-17.623-14.04-35.545-18.318-54.085
					c10.287-5.089,14.191-17.595,16.26-28.883c2.148-11.721,3.415-23.96,0.184-35.43c-3.23-11.47-11.357-20.83-22.985-23.436
					c-19.234-23.974-51.969-36.306-82.24-30.981c-12.788,2.249-25.566,9.156-33.919,19.096c-8.094,0.477-16.707,1.137-23.192,6.003
					c-7.442,5.584-10.282,15.387-11.451,24.617c-2.834,22.384,1.202,46.186,12.125,65.928c-3.485-2.144-8.11-1.593-11.719,0.337
					c-3.608,1.929-5.358,6.26-8.094,9.303c1.921-18.743,2.268-37.646,1.036-56.447c-0.425-6.487-1.352-13.619-6.202-17.948
					c-1.528-1.364-3.523-2.39-5.559-2.161c-2.475,0.278-4.374,2.287-5.831,4.306c-10.273,14.239-9.632,33.873-18.462,49.048
					c-3.327,5.717-7.962,10.667-13.448,14.363c-1.333,0.898-2.741,1.734-4.297,2.137c-1.731,0.449-3.551,0.341-5.334,0.483
					c-9.923,0.788-17.636,9.194-22.021,18.13c-9.21,18.77-8.217,42.657-6.903,63.523c-20.141,30.678-40.204,62.124-50.516,97.344
					c-3.76,12.841-6.189,26.289-4.779,39.594c1.409,13.306,6.985,26.524,17.131,35.247c6.458,5.552,14.457,9.068,22.668,11.328
					c14.611,4.022,30.541,4.183,44.679-1.273c14.138-5.456,27.794-16.881,32.429-31.309c9.75,22.778,17.292,46.501,22.484,70.728
					L571.841,499.87z"/>
				<path style="opacity:0.26;fill:#F43B86;" d="M264.809,499.907c-3.975-16.184-9.407-32.011-16.208-47.226
					c-8.039,4.733-17.05,9.591-25.09,14.324c-3.591,2.114-7.199,4.237-11.063,5.798c-5.801,2.344-12.074,3.373-18.327,3.575
					c-28.258,0.913-56.558-16.746-66.978-43.029c-6.033-15.217-6.222-32.184-3.959-48.396
					c6.049-43.343,30.069-75.698,53.933-112.382c-1.876-15.57-4.347-31.268-0.587-46.494c3.759-15.226,13.288-29.773,27.707-35.942
					c5.668-2.425,11.94-3.524,17.144-6.828c5.704-3.622,9.569-9.578,12.157-15.82s4.059-12.878,6.079-19.326
					c2.758-8.805,6.555-17.285,11.285-25.207c2.717-4.55,6.026-9.154,10.945-11.125c4.919-1.972,11.718-0.014,13.119,5.096
					c0.859-8.609,6.857-17.979,14.459-22.109c7.602-4.129,16.491-5.297,25.142-5.171c15.24-17.76,37.707-27.917,61.044-26.172
					c23.337,1.745,45.516,15.123,57.946,34.952c13.043,2.11,24.801,12.293,30.49,24.219c5.689,11.925,6.76,25.585,5.767,38.76
					c-0.577,7.665-1.849,15.378-4.995,22.392c-3.146,7.013-8.32,13.318-15.22,16.705c4.351,12.804,8.072,25.554,12.863,38.2
					c3.033,8.007,6.183,16.037,10.75,23.279c4.019,6.373,9.069,12.027,14.231,17.516c9.2,9.781,18.834,19.143,28.465,28.5
					c2.478-7.175,7.321-14.474,12.68-19.85c2.381-2.389,5.14-4.608,8.435-5.331c4.792-1.052,9.861,1.376,13.045,5.109
					c3.184,3.732,4.765,8.57,5.752,13.375c2.44,11.876,1.685,24.147,0.92,36.247c5.063,0.627,9.767,3.7,12.376,8.085
					c6.111,0.735,11.603,5.255,13.499,11.111c0.314,0.969,0.552,1.998,1.186,2.794c0.84,1.055,2.203,1.501,3.432,2.055
					c8.397,3.783,11.906,13.611,14.565,22.429c5.297,17.567-10.375,35.313-14.326,53.23c-4.601,20.865-4.374,41.517-3.124,62.847
					L264.809,499.907z"/>
			</g>
			<g>
				<path style="fill:#7267CB;" d="M480.925,309.076c-10.311-16.768-22.043-32.803-30.365-50.639
					c-17.977-38.531-18.841-82.47-21.181-124.924c-0.361-6.539-0.79-13.201-3.184-19.297c-4.795-12.21-16.662-20.181-28.701-25.391
					c-15.692-6.791-33.603-10.187-49.961-5.211c-21.535,6.551-33.565,26.409-40.633,47.78c-8.926,26.989,1.168,56.793-3.867,84.771
					c-3.233,17.964-12.523,34.195-22.099,49.734c-5.638,9.149-11.43,18.202-17.374,27.156c5.466,0.206,11.144,1.583,16.61,1.789
					c15.118-23.045,26.21-49.475,33.444-76.07c-2.236,27.138-9.867,52.9-22.437,77.055c39.413,16.872,83.19,24.322,126.019,22.409
					c4.204-0.188,7.605,0.024,11.531-1.493c-7.933-27.76-10.997-56.491-8.026-85.21c2.901,29.546,6.185,59.607,22.747,84.245
					c7.023-1.015,13.518-1.849,20.51-3.064C469.368,311.777,475.517,310.015,480.925,309.076z"/>
				<g>
					<path style="opacity:0.5;fill:#7267CB;" d="M270.199,301.399c0.138,2.815,1.623,5.735,4.236,6.791
						c1.834-4.447,3.672-8.909,5.507-13.361c-2.683-0.117-5.415-0.502-8.147-0.89C270.86,296.338,270.073,298.839,270.199,301.399z"
						/>
					<path style="opacity:0.5;fill:#7267CB;" d="M314.775,104.575c-0.905,1.745-1.05,3.773-1.151,5.737
						c-0.084,1.624-0.109,3.256-0.101,4.893c2.939-5.835,6.412-11.27,10.537-16.004C320.315,99.922,316.486,101.276,314.775,104.575
						z"/>
					<path style="fill:#7267CB;" d="M416.67,307.026c-5.357-29.179-7.163-60.531,5.501-87.359
						c3.782,28.529,11.643,56.514,23.267,82.84c1.271,2.877,2.683,5.859,5.204,7.739c4.878,3.638,11.742,1.852,17.512-0.083
						c-24.818-30.443-32.563-71.005-38.323-109.858c-2.299-15.508-4.42-31.141-3.821-46.807c0.273-7.144,1.404-14.138,3.316-20.906
						c-0.354-6.242-0.849-12.566-3.131-18.376c-1.486-3.784-3.653-7.158-6.292-10.172c-3.981-0.701-7.996-1.256-11.99-1.806
						c-27.286-3.754-55.032-7.507-82.254-3.312c-0.527,0.081-1.063,0.172-1.6,0.275c-4.125,4.734-7.598,10.169-10.537,16.004
						c0.045,9.768,1.409,19.73,0.484,29.387c-3.146,32.844-2.549,66.92-15.407,97.305c-7.511,17.749-19.335,33.445-26.523,51.327
						c-0.095,0.237-0.188,0.476-0.281,0.714c2.732,0.388,5.464,0.773,8.147,0.89c11.68-28.333,23.378-56.729,35.05-85.033
						c6.798,24.813,4.308,52.055-6.875,75.224c-3.969,8.223,6.509,13.332,13.702,18.957c2.098,1.641,4.27,3.186,6.494,4.651
						c28.899,7.735,59.119,10.94,88.886,9.61c0.012-0.001,0.023-0.001,0.035-0.001C418.019,314.681,417.345,310.706,416.67,307.026z
						"/>
					<path style="opacity:0.5;fill:#7267CB;" d="M416.67,307.026c-5.357-29.179-7.163-60.531,5.501-87.359
						c3.782,28.529,11.643,56.514,23.267,82.84c1.271,2.877,2.683,5.859,5.204,7.739c4.878,3.638,11.742,1.852,17.512-0.083
						c-24.818-30.443-32.563-71.005-38.323-109.858c-2.299-15.508-4.42-31.141-3.821-46.807c0.273-7.144,1.404-14.138,3.316-20.906
						c-0.354-6.242-0.849-12.566-3.131-18.376c-1.486-3.784-3.653-7.158-6.292-10.172c-3.981-0.701-7.996-1.256-11.99-1.806
						c-27.286-3.754-55.032-7.507-82.254-3.312c-0.527,0.081-1.063,0.172-1.6,0.275c-4.125,4.734-7.598,10.169-10.537,16.004
						c0.045,9.768,1.409,19.73,0.484,29.387c-3.146,32.844-2.549,66.92-15.407,97.305c-7.511,17.749-19.335,33.445-26.523,51.327
						c-0.095,0.237-0.188,0.476-0.281,0.714c2.732,0.388,5.464,0.773,8.147,0.89c11.68-28.333,23.378-56.729,35.05-85.033
						c6.798,24.813,4.308,52.055-6.875,75.224c-3.969,8.223,6.509,13.332,13.702,18.957c2.098,1.641,4.27,3.186,6.494,4.651
						c28.899,7.735,59.119,10.94,88.886,9.61c0.012-0.001,0.023-0.001,0.035-0.001C418.019,314.681,417.345,310.706,416.67,307.026z
						"/>
				</g>
				<path style="fill:#FFFFFF;" d="M278.263,499.322c0.369,0.096,0.027,0.744-0.339,0.633c-0.365-0.111-0.501-0.547-0.582-0.92
					c-4.523-20.936-8.27-42.398-18.035-61.461c-4.664-9.105-10.627-17.499-15.235-26.632c-3.064-6.075-5.51-12.439-7.95-18.791
					c-9.378-24.412-31.135-53.168-16.308-74.71c6.306-9.162,13.565-18.174,23.497-23.18c6.028-3.038,12.727-4.435,19.338-5.801
					c10.863-2.245,21.726-4.49,32.59-6.735c8.303-1.716,16.691-3.459,24.385-7.021c2.622-1.214,5.223-2.696,6.983-4.987
					c1.868-2.432,2.605-5.527,3.194-8.537c2.902-14.825,3.372-30.123,1.383-45.098c2.982,4.403,6.039,6.897,11.059,8.649
					c13.755,4.801,28.748,3.998,43.292,3.137c7.336-0.434,15.435-1.21,20.456-6.576c-1.369,9.395-3.028,17.189-3.725,26.658
					c-0.802,10.881-0.804,22.907,6.189,31.282c6.477,7.757,17.225,10.237,27.247,11.53c16.826,2.17,34.734,2.564,49.069,11.638
					c12.431,7.869,20.281,21.159,26.805,34.345c11.181,22.598,19.989,46.973,20.401,72.182c0.495,30.283,9.503,60.811,12.79,90.919
					c0.016,0.147-0.327-0.604-0.327-0.456h-54.24c-4.828-10.256-9.298-21.264-13.041-31.964
					c-3.168,10.961-7.425,21.493-10.916,32.356L278.263,499.322z"/>
				<g>
					<path style="fill:#F2AB88;" d="M238.844,399.137c1.599,3.999,3.29,7.96,5.229,11.804c3.072,6.089,6.741,11.852,10.232,17.714
						c2.812-0.321,5.539-1.001,8.068-2.301c5.377-2.763,9.077-7.92,12.18-13.107c17.437-29.146,22.227-64.62,18.506-98.38
						c-0.449-4.078-1.023-8.172-2.34-12.057c-0.62-1.83-1.406-3.579-2.318-5.255c-6.422,18.393-13.452,36.574-21.12,54.484
						C259.948,369.171,250.085,384.611,238.844,399.137z"/>
					<path style="fill:#FFC59A;" d="M278.014,285.285c-5.121,1.058-10.242,2.117-15.363,3.175
						c-6.611,1.366-13.31,2.763-19.338,5.801c-9.932,5.006-17.191,14.018-23.497,23.18c-14.826,21.542,6.931,50.298,16.308,74.71
						c0.896,2.332,1.793,4.666,2.721,6.987c11.24-14.527,21.104-29.967,28.438-47.097c7.668-17.91,14.698-36.09,21.12-54.484
						C285.842,292.853,282.226,288.755,278.014,285.285z"/>
					<path style="fill:#F2AB88;" d="M531.978,408.927c-0.412-25.209-9.22-49.585-20.401-72.182
						c-6.525-13.186-14.374-26.476-26.805-34.345c-14.335-9.074-32.243-9.468-49.069-11.638c-1.443-0.186-2.901-0.402-4.359-0.649
						c19.649,24.075,35.334,51.384,46.17,80.51c2.172,5.839,4.155,11.759,5.577,17.825c5.707,24.341,2.145,49.985-4.592,74.062
						c-0.479,1.71-0.973,3.439-1.241,5.188c3.723,10.615,8.156,21.523,12.944,31.693h54.24c0-0.148,0.343,0.603,0.327,0.456
						C541.481,469.738,532.473,439.21,531.978,408.927z"/>
				</g>
				<g>
					<path style="fill:#F2AB88;" d="M379.689,259.127c8.866-1.761,16.562-6.916,22.788-13.587
						c0.781-8.406,2.264-15.666,3.514-24.248c-5.021,5.366-13.12,6.142-20.456,6.576c-14.544,0.861-29.536,1.664-43.292-3.137
						c-5.02-1.752-8.077-4.246-11.059-8.649c1.072,8.076,1.423,16.246,1.07,24.385c5.207,4.831,10.741,9.282,16.927,12.737
						C358.418,258.363,369.314,261.188,379.689,259.127z"/>
				</g>
				<path style="fill:#FFC59A;" d="M318.445,153.45c-0.707,10.373-0.233,20.795,0.702,31.15c1.173,12.99,3.24,26.383,10.34,37.323
					c5.866,9.039,14.866,15.782,24.757,20.059c3.601,1.557,7.367,2.817,11.266,3.248c6.966,0.77,14.018-1.159,20.291-4.286
					c7.807-3.892,14.873-8.652,20.64-15.197c5.479-6.217,8.996-14.004,10.861-22.077c2.407-10.417,2.152-21.264,1.266-31.919
					c-0.833-10.019-2.213-19.993-4.132-29.862c-1.145-5.892-2.568-11.938-6.141-16.76c-3.671-4.954-9.324-8.153-15.227-9.933
					c-8.736-2.635-18.06-2.417-27.16-1.738c-13.256,0.99-27.563,3.466-36.607,13.209c-4.072,4.387-6.7,9.888-9.239,15.308
					C317.808,146.787,318.806,148.148,318.445,153.45z"/>
				<path style="fill:#FFA087;" d="M359.439,204.868c2.78-0.74,5.715-0.391,8.591-0.432c2.239-0.032,4.515-0.3,6.694,0.221
					c3.24,0.775,6.038,3.541,6.4,6.852c0.353,3.228,0.316,6.971-1.756,9.471c-2.057,2.482-4.471,4.755-7.408,6.081
					c-2.938,1.326-8.276,0.909-11.163-0.525c-2.683-1.332-4.529-3.976-5.537-6.797C353.304,214.268,352.402,206.741,359.439,204.868
					z"/>
				<path style="fill:#F2AB88;" d="M370.117,191.542c-0.755,1.348-1.733,2.57-2.883,3.602c-0.304,0.272-0.633,0.539-1.028,0.642
					c-0.424,0.11-0.871,0.019-1.298-0.079c-1.727-0.395-5.983-1.485-6.037-3.614C362.782,192.122,366.223,192.66,370.117,191.542z"
					/>
				<g>
					<path style="fill:#FFA087;" d="M342.257,185.785c0-9.275-7.519-16.793-16.793-16.793c-2.589,0-5.032,0.603-7.222,1.65
						c0.169,4.659,0.486,9.316,0.906,13.958c0.528,5.849,1.243,11.777,2.511,17.529c1.225,0.284,2.495,0.45,3.805,0.45
						C334.738,202.578,342.257,195.06,342.257,185.785z"/>
					<path style="fill:#FFA087;" d="M418.857,175.613c-2.77-2.015-6.169-3.218-9.857-3.218c-9.275,0-16.793,7.519-16.793,16.793
						c0,9.275,7.519,16.793,16.793,16.793c3.009,0,5.827-0.802,8.27-2.188c0.01-0.042,0.022-0.083,0.032-0.125
						C419.418,194.508,419.476,185.016,418.857,175.613z"/>
					<g style="opacity:0.25;">
						<path style="fill:#F2AB88;" d="M418.568,171.75c-0.833-10.019-2.213-19.993-4.132-29.862
							c-1.145-5.892-2.568-11.938-6.141-16.76c-3.671-4.954-9.324-8.153-15.227-9.933c-8.736-2.635-18.06-2.417-27.16-1.738
							c-13.256,0.99-27.563,3.466-36.607,13.209c-4.072,4.387-6.7,9.888-9.239,15.308c-2.254,4.813-1.256,6.174-1.617,11.476
							c-0.707,10.373-0.233,20.795,0.702,31.15c0.165,1.824,0.35,3.656,0.562,5.487c6.086,1.038,12.23,1.562,18.237,0.34
							c6.909-1.405,13.145-5.025,19.819-7.294c6.675-2.269,14.557-3.005,20.347,1.017c2.768,1.923,4.789,4.759,7.497,6.766
							c3.859,2.859,8.775,3.807,13.528,4.504c5.704,0.836,12.672,2.297,19.231,2.477
							C419.592,189.278,419.291,180.451,418.568,171.75z"/>
					</g>
				</g>
				<path style="fill:none;stroke:#56052A;stroke-linecap:round;stroke-linejoin:round;stroke-miterlimit:10;" d="M364.651,172.395
					c-0.157,3.488-0.313,6.976-0.47,10.463c-0.077,1.711-0.162,3.46-0.804,5.047c-0.642,1.587-1.96,3.01-3.649,3.295
					c-0.599,0.101-1.382,0.183-1.523,0.774c-0.093,0.391,0.183,0.767,0.462,1.056c1.833,1.904,4.573,2.893,7.2,2.601"/>
				<path style="fill:#DA6B58;" d="M356.893,220.3c-2.431-2.302-3.656-5.694-3.748-9.041c-0.018-0.635,0.012-1.304,0.34-1.848
					c0.492-0.816,1.511-1.13,2.451-1.288c1.542-0.259,3.123-0.278,4.67-0.054c2.064,0.298,4.06,1.022,6.14,1.164
					c2.12,0.145,4.227-0.321,6.331-0.618c2.104-0.297,4.319-0.415,6.288,0.384c1.969,0.799,3.613,2.736,3.456,4.856
					c-0.089,1.203-0.725,2.296-1.448,3.262C376.084,224.193,363.746,226.79,356.893,220.3z"/>
				<path style="fill:#4C8479;" d="M307.352,183.472c3.254,1.809,7.125,2.025,10.844,2.2c5.595,0.263,11.191,0.525,16.786,0.788
					c1.623,0.076,3.266,0.151,4.859-0.172c2.344-0.475,4.427-1.778,6.409-3.117c2.224-1.503,4.396-3.083,6.511-4.736
					c0.513-0.401,1.067-0.89,1.09-1.541c0.032-0.907-0.949-1.475-1.797-1.8c-8.596-3.294-18.046-3.313-27.251-3.289
					c-3.565,0.009-7.137,0.019-10.684,0.374c-2.605,0.261-10.318,0.375-11.479,2.862
					C301.235,178.049,305.07,182.204,307.352,183.472z"/>
				<path style="fill:#4C8479;" d="M391.148,187.856c2.201,1.164,4.68,1.678,7.126,2.139c6.285,1.183,12.62,2.104,18.982,2.76
					c4.353,0.448,8.89,0.749,12.976-0.817c3.894-1.493,7.096-4.696,8.588-8.591c0.554-1.447,0.857-3.156,0.064-4.488
					c-0.999-1.68-3.236-2.035-5.183-2.216c-11.14-1.034-22.28-2.069-33.419-3.103c-3.185-0.296-6.416-0.59-9.567-0.038
					c-2.286,0.4-5.169,0.962-7.286,1.952c-2.22,1.037-2.18,1.648-0.94,3.63C384.575,182.415,387.642,186.002,391.148,187.856z"/>
				<path style="fill:#FFC59A;" d="M508.2,499.389c1.975-17.003,12.115-32.126,15.717-48.911c1.69-7.875,2.56-16.331,2.775-24.382
					c-6.658-11.021-10.987-23.261-15.27-35.403c-3.082-8.737-6.164-17.474-9.246-26.21c-0.641-1.818-1.292-3.702-1.14-5.624
					c0.152-1.922,1.334-3.902,3.208-4.354c2.605-0.628,4.87,1.772,6.449,3.938c5.75,7.89,11.079,16.087,15.956,24.544
					c-0.524-23.5-1.752-48.29,5.541-70.637c1.251-3.834,3.569-8.242,7.599-8.405c2.336,1.16,2.618,4.321,2.582,6.93
					c-0.154,11.29-0.309,22.58-0.463,33.87c-0.034,2.473-0.046,5.049,1.024,7.279c1.107,2.305,3.223,3.934,5.265,5.474
					c6.707,5.058,13.414,10.117,20.121,15.175c2.622,1.977,5.25,3.959,8.063,5.653c1.351,0.814,2.776,1.587,3.78,2.803
					c1.111,1.345,1.591,3.096,1.911,4.812c2.698,14.473-3.996,28.875-10.63,42.018c-3.872,7.671-4.938,16.258-5.515,24.831
					c-1.065,15.823-2.13,31.646-3.195,47.468C562.73,500.258,508.152,499.8,508.2,499.389z"/>
				<path style="fill:#F2AB88;" d="M534.443,386.155c0.161-6.452-3.463-27.405-0.019-32.862c3.445-5.457,14.674,5.019,20.8,7.049
					c3.376,1.119,6.003,3.743,8.495,6.281c3.314,3.375,6.628,6.751,9.942,10.127c1.353,1.378,2.724,2.78,3.648,4.475
					c2.086,3.825,1.587,8.562,0.235,12.704c-4.263,13.065-17.007,22.903-30.726,23.719
					C531.479,418.56,534.185,396.459,534.443,386.155z"/>
				<path style="fill:#69A89C;" d="M291.856,135.667c-1.758,5.352-9.013,21.427,11.489,44.601
					c15.503,2.596,31.289,3.076,46.707,0.018c4.956-0.983,9.883-2.258,14.928-2.531c8.908-0.482,17.666,2.177,26.094,5.103
					c8.428,2.926,16.878,6.179,25.765,6.957c8.887,0.778,18.491-1.287,24.741-7.652c5.698-5.803,6.288-14.524,7.101-22.615
					c0.636-6.325,1.232-12.656,1.548-19.005c0.203-4.063,0.255-8.31-1.505-11.977c-1.845-3.844-5.506-6.575-9.461-8.167
					c-3.955-1.592-8.232-2.173-12.461-2.715c-40.423-5.183-81.794-7.958-121.674,0.434c-3.26,0.686-6.657,1.522-9.135,3.749
					C292.305,125.178,293.402,130.958,291.856,135.667z"/>
				<path style="fill:#8BD6C8;" d="M302.116,109.509c-5.389,2.416-9.191,7.557-11.196,13.112
					c-2.005,5.555-2.418,11.545-2.602,17.448c-0.198,6.365-0.129,12.877,1.964,18.892c2.093,6.014,6.55,11.529,12.649,13.361
					c2.135,0.642,4.378,0.814,6.602,0.975c18.18,1.309,36.831,0.357,55.059,0.433c14.745,0.062,29.417,4.145,43.97,6.516
					c7.565,1.233,15.34,2.462,22.836,0.867c3.945-0.839,7.766-2.485,10.836-5.101c2.332-7.822,4.841-15.648,5.767-23.758
					c0.926-8.11,0.372-16.552-2.901-24.029c-0.697-1.592-1.537-3.164-2.804-4.353c-1.457-1.368-3.369-2.131-5.258-2.782
					c-8.142-2.807-16.719-4.09-25.249-5.281c-14.417-2.012-28.866-3.798-43.339-5.358
					C345.894,108.019,322.816,100.227,302.116,109.509z"/>
				<g>
					<path style="opacity:0.5;fill:#69A89C;" d="M418.193,145.031c-3.146-2.475-7.193-3.453-11.132-4.167
						c-7.188-1.304-14.496-1.95-21.801-1.928c-12.711,0.038-25.325,2.091-38.013,2.866c-9.568,0.585-19.414,0.487-28.356,3.942
						c-10.297,3.978-18.119,12.131-25.105,20.867c2.166,4.217,5.241,8.778,9.559,13.658c0.199,0.033,0.399,0.062,0.598,0.095
						c1.038,1.376,2.38,2.537,3.409,3.109c3.254,1.809,7.125,2.025,10.844,2.2c5.595,0.263,11.191,0.525,16.786,0.788
						c1.623,0.076,3.266,0.151,4.859-0.172c2.344-0.475,4.427-1.778,6.409-3.117c1.408-0.951,2.786-1.944,4.15-2.956
						c4.839-0.972,9.654-2.193,14.58-2.459c6.209-0.336,12.345,0.855,18.347,2.598c2.03,2.94,4.758,5.883,7.822,7.503
						c2.201,1.164,4.679,1.678,7.126,2.139c6.285,1.183,12.62,2.104,18.982,2.759c4.353,0.448,8.89,0.75,12.976-0.817
						c3.277-1.257,6.051-3.733,7.741-6.805c1.008-0.674,1.949-1.447,2.847-2.277c-5.171-10.313-10.745-20.423-16.705-30.301
						C422.457,149.807,420.716,147.016,418.193,145.031z"/>
				</g>
				<path style="fill:#AEFFF1;" d="M436.975,176.034c2.285-1.393,3.769-3.78,4.95-6.181c5.743-11.676,6.168-25.423,3.502-38.159
					c-1.053-5.029-2.516-10.456-6.662-13.491c-3.076-2.251-6.947-3.058-10.697-3.737c-18.395-3.329-37.049-4.954-55.672-6.574
					c-12.343-1.074-24.686-2.147-37.028-3.221c-11.791-1.026-25.239-3.398-34.534,3.93c-2.976,2.346-4.278,6.194-5.206,9.868
					c-2.641,10.46-3.466,21.375-2.427,32.113c0.37,3.819,1.018,7.741,3.074,10.981c2.304,3.631,6.191,6.045,10.299,7.317
					c4.108,1.272,8.46,1.505,12.759,1.559c6.686,0.085,13.37-0.241,20.054-0.427c10.414-0.29,20.838-0.242,31.249,0.145
					c18.137,0.673,35.161,8.38,53.29,9.259C428.265,179.626,433.265,178.295,436.975,176.034z"/>
				<path style="fill:#842F82;" d="M427.211,165.655l-117.314-6.747c-4.815-0.277-8.495-4.405-8.218-9.221l1.21-21.031
					c0.277-4.816,4.405-8.495,9.221-8.218l117.313,6.747c4.816,0.277,8.495,4.405,8.218,9.221l-1.21,21.031
					C436.154,162.253,432.026,165.932,427.211,165.655z"/>
				<g style="opacity:0.25;">
					<path style="fill:#FFFFFF;" d="M383.329,124.534l-11.252-0.647c-12.686,11.703-24.943,23.871-36.723,36.485l10.762,0.619
						C358.338,148.655,370.746,136.502,383.329,124.534z"/>
					<path style="fill:#FFFFFF;" d="M347.527,122.475l-22.968-1.321c-7.672,7.077-15.166,14.345-22.491,21.78l-0.388,6.753
						c-0.277,4.815,3.402,8.944,8.218,9.221l1.247,0.072C322.793,146.346,334.933,134.167,347.527,122.475z"/>
					<path style="fill:#FFFFFF;" d="M436.536,131.64c-11.037,10.673-21.853,21.575-32.45,32.685l15.524,0.893
						c5.71-5.89,11.5-11.703,17.377-17.427l0.655-11.385C437.74,134.679,437.324,133.044,436.536,131.64z"/>
					<path style="fill:#FFFFFF;" d="M401.804,125.596c-11.725,12.191-23.451,24.383-35.176,36.574l18.47,1.062
						c10.94-12.362,22.028-24.592,33.265-36.684L401.804,125.596z"/>
				</g>
				<g>
					<path style="fill:#FF8E8A;" d="M357.661,220.935c4.983,4.032,12.337,3.831,18.002,0.89c-0.677-0.392-1.353-0.789-2.048-1.138
						C368.672,218.209,362.547,218.389,357.661,220.935z"/>
					<path style="fill:#FFFFFF;" d="M381.53,210.516c-0.599-0.654-1.349-1.187-2.165-1.518c-1.969-0.799-4.184-0.681-6.288-0.384
						c-2.104,0.297-4.211,0.763-6.331,0.618c-2.08-0.142-4.076-0.865-6.14-1.164c-1.547-0.223-3.129-0.205-4.67,0.054
						c-0.889,0.15-1.835,0.453-2.353,1.176c2.909,2.128,6.663,3.23,10.305,3.637C369.848,213.6,375.964,212.741,381.53,210.516z"/>
				</g>
				<g style="opacity:0.57;">
					<path style="fill:#DDDDDD;" d="M488.419,495.534c-0.371-0.818-0.736-1.646-1.102-2.472
						C487.683,493.888,488.047,494.716,488.419,495.534z"/>
					<path style="fill:#DDDDDD;" d="M486.676,491.626c-0.487-1.111-0.965-2.23-1.442-3.35
						C485.711,489.397,486.19,490.515,486.676,491.626z"/>
					<path style="fill:#DDDDDD;" d="M484.979,487.682c-0.552-1.305-1.096-2.615-1.632-3.929
						C483.884,485.067,484.428,486.377,484.979,487.682z"/>
					<path style="fill:#DDDDDD;" d="M380.721,290.703c-12.99,2.083-26.372-2.537-37.158-10.071
						c5.848,6.495,12.665,12.257,20.582,15.958c7.917,3.702,17.013,5.239,25.531,3.282c5.113-1.174,9.864-3.546,14.492-6.016
						c4.481-2.391,8.965-4.969,13.159-7.889c-3.385-1.643-6.432-3.815-8.871-6.737c-1.337-1.601-2.414-3.337-3.283-5.172
						C400.317,282.824,390.786,289.089,380.721,290.703z"/>
					<path style="fill:#DDDDDD;" d="M478.499,462.509c4.817-17.216,7.989-35.231,7.332-53c-0.921,2.95-2.034,5.846-3.287,8.663
						c-2.698,6.064-6.145,11.981-11.283,16.182c-6.173,5.048-14.357,7.192-22.332,7.152c-7.974-0.04-15.806-2.113-23.336-4.738
						c-4.135-1.442-8.309-3.074-12.687-3.179c-7.745-0.187-14.68,4.352-21.856,7.271c-20.029,8.149-64.99,0.518-79.974-15.073
						c3.048,14.625,36.078,28.148,50.266,32.827c14.188,4.679,29.587,3.865,44.381,1.783c14.794-2.083,29.494-5.387,44.433-5.536
						c5.519-0.055,10.366-1.091,15.778-2.173c-1.602,16.266-5.531,32.113-11.819,47.064l12.131,0.03
						c3.491-10.863,7.747-21.395,10.916-32.356c1.887,5.395,3.96,10.868,6.169,16.284c-2.172-5.325-4.211-10.705-6.072-16.012
						C477.526,465.948,478.02,464.219,478.499,462.509z"/>
					<path style="fill:#DDDDDD;" d="M275.001,429.177c1.277-3.728,3.816-6.866,6.27-9.95c5.722-7.191,11.287-14.623,15.082-22.993
						c3.143-6.932,5.008-14.37,6.591-21.816c3.471-16.326,5.665-33.134,3.688-49.707c-1.814-15.204-7.408-30.277-17.477-41.73
						c-8.835,1.826-17.67,3.652-26.504,5.477c5.121-1.058,10.242-2.117,15.363-3.175c4.212,3.47,7.828,7.568,10.388,12.272
						c0.912,1.676,1.697,3.425,2.318,5.255c1.317,3.885,1.891,7.979,2.34,12.057c3.72,33.759-1.07,69.234-18.506,98.38
						c-3.103,5.187-6.804,10.344-12.18,13.107c-2.529,1.3-5.256,1.98-8.068,2.301c0,0-0.001-0.001-0.001-0.001
						c1.745,2.931,3.449,5.884,5.004,8.919c9.766,19.063,13.513,40.526,18.035,61.461c0.081,0.373,0.216,0.809,0.582,0.92
						c0.365,0.111,0.708-0.538,0.339-0.633l17.877,0.044c-4.819-15.5-10.452-30.746-16.879-45.651
						C275.892,445.903,272.245,437.225,275.001,429.177z"/>
					<path style="fill:#DDDDDD;" d="M487.317,493.062c-0.213-0.479-0.429-0.954-0.64-1.436
						C486.887,492.108,487.104,492.583,487.317,493.062z"/>
					<path style="fill:#DDDDDD;" d="M483.348,483.753c-0.006-0.015-0.012-0.029-0.018-0.044
						C483.336,483.724,483.342,483.739,483.348,483.753z"/>
					<path style="fill:#DDDDDD;" d="M431.344,290.112L431.344,290.112c1.458,0.248,2.916,0.463,4.359,0.649
						C434.26,290.575,432.802,290.36,431.344,290.112z"/>
					<path style="fill:#DDDDDD;" d="M490.201,499.39c-0.6-1.274-1.194-2.56-1.783-3.856
						C489.007,496.829,489.601,498.116,490.201,499.39z"/>
					<path style="fill:#DDDDDD;" d="M485.235,488.276c-0.084-0.199-0.171-0.395-0.255-0.594
						C485.063,487.881,485.15,488.078,485.235,488.276z"/>
				</g>
				<g style="opacity:0.36;">
					<path style="opacity:0.5;fill:#F2AB88;" d="M499.004,385.749c-5.059-27.176-17.829-52.329-32.522-75.743
						c-3.673-5.853-7.512-11.655-11.843-17.027c-6.302-0.85-12.693-1.412-18.935-2.217c-1.443-0.186-2.901-0.402-4.359-0.649
						c19.649,24.075,35.334,51.384,46.17,80.51c2.172,5.839,4.155,11.759,5.577,17.825c5.707,24.341,2.145,49.985-4.592,74.062
						c-0.479,1.71-0.973,3.439-1.241,5.188c3.308,9.433,7.179,19.094,11.359,28.265C498.246,460.004,505.815,422.34,499.004,385.749
						z"/>
				</g>
				<g>
					<path style="fill:#FFC59A;" d="M218.678,318.42c-9.709,12.635-18.826,25.725-27.31,39.212
						c-6.501,10.336-12.68,21.01-16.43,32.63c-3.751,11.62-4.953,24.351-1.437,36.045c1.639,5.451,4.261,10.566,7.304,15.375
						c4.977,7.864,12.725,15.692,21.982,14.728c5.386-0.561,9.966-4.032,14.171-7.443c6.42-5.208,12.745-10.63,17.898-17.095
						c6.377-8,10.779-17.361,15.057-26.655c11.086-24.08,21.887-48.862,24.593-75.233c0.374-3.642,0.589-7.33,0.069-10.954
						c-1.132-7.888-5.922-15.174-12.716-19.339c-6.069-3.721-16.624-5.947-23.46-2.835
						C230.673,300.374,223.704,311.88,218.678,318.42z"/>
					<g>
						<path style="fill:#F2AB88;" d="M244.376,305.629c0.098-2.717,2.463-10.471,3.053-13.167c-4.99-1.132-4.945,2.534-9.029,4.394
							c-7.727,3.518-14.696,15.024-19.721,21.564c-9.709,12.635-18.826,25.725-27.31,39.212c-6.501,10.336-12.68,21.01-16.43,32.63
							c-3.751,11.62-4.953,24.351-1.438,36.045c1.639,5.451,4.261,10.566,7.305,15.375c4.977,7.864,12.725,15.692,21.982,14.728
							c4.228-0.44,7.958-2.676,11.402-5.267c2.887-6.958,5.404-14.098,7.758-21.206
							C235.483,389.052,242.494,358.025,244.376,305.629z"/>
					</g>
					<g>
						<path style="fill:#FFC59A;" d="M244.787,192.588c3.041-12.369,6.083-24.738,9.124-37.108
							c1.371-5.577,2.785-11.256,5.798-16.146c1.348-2.187,4.084-4.391,6.198-2.932c1.116,0.77,1.451,2.245,1.652,3.586
							c1.536,10.209,0.368,20.609-0.802,30.866c-1.889,16.564-1.445,33.873-5.281,50.097c-0.829,3.506-0.475,7.281,0.992,10.572
							c0.333,0.748,0.779,1.525,1.536,1.839c1.753,0.728,3.262-1.408,4.004-3.154c4.025-9.459,9.212-18.422,15.408-26.624
							c1.102-1.459,2.303-2.948,3.974-3.689c1.671-0.741,3.94-0.462,4.904,1.091c0.617,0.993,0.578,2.245,0.482,3.41
							c-0.736,8.881-3.667,17.422-6.801,25.764c-2.423,6.451-4.988,12.865-8.18,18.973c-8.374,16.029-22.667,30.669-32.968,43.978
							c-7.999,21.378-9.004,44.655-14.031,66.92c-1.787,7.914-4.083,15.702-6.396,23.478c-6.184,20.795-12.499,41.557-19.628,62.048
							c-1.683,4.836-0.847,10.648-5.682,12.337c-2.738,0.957-5.7,1.042-8.599,0.959c-9.713-0.276-19.488-2.376-28.002-7.059
							c-8.514-4.683-15.699-12.075-19.215-21.134c-5.569-14.344-1.494-30.467,3.229-45.111
							c10.241-31.752,23.354-62.577,39.127-91.975c2.636-4.913,5.393-9.85,9.271-13.856c0.756-11.921,0.286-23.782-1.129-35.643
							c-0.357-2.991-0.783-5.996-0.597-9.003c0.457-7.367,4.976-14.469,11.677-17.563c3.259-1.505,6.867-2.066,10.246-3.277
							c5.981-2.144,11.03-6.235,15.952-10.253C235.8,200.106,240.042,196.462,244.787,192.588z"/>
						<g>
							<path style="fill:#F2AB88;" d="M262.455,213.737c0.365-1.569,0.745-3.135,1.141-4.697
								c1.635-12.625,1.729-25.619,3.162-38.186c1.17-10.257,2.338-20.657,0.802-30.866c-0.05-0.332-0.108-0.672-0.185-1.008
								c-0.693,15.596-3.13,31.114-7.28,46.163c-0.163,0.591-0.391,1.256-0.956,1.495c-0.592,0.251-1.259-0.091-1.79-0.455
								c-3.293-2.254-5.823-5.773-9.022-7.994c-1.18,4.799-2.36,9.598-3.54,14.398c-0.778,0.635-1.527,1.257-2.282,1.881
								C249.474,200.551,256.142,206.977,262.455,213.737z"/>
							<path style="fill:#F2AB88;" d="M259.651,227.608c-0.438,2.559-0.829,5.232-0.069,7.714c0.76,2.482,3.02,4.703,5.611,4.542
								c2.936-0.182,4.842-3.076,6.268-5.649c3.57-6.443,7.139-12.887,10.709-19.33c1.988-3.588,4.027-7.243,7.048-10.017
								c1.057-0.971,2.264-1.816,3.554-2.473c-0.07-0.499-0.21-0.979-0.476-1.408c-0.965-1.553-3.233-1.832-4.904-1.091
								c-1.671,0.741-2.873,2.23-3.974,3.689c-6.196,8.202-11.383,17.165-15.408,26.624c-0.743,1.746-2.252,3.881-4.005,3.154
								c-0.756-0.314-1.202-1.091-1.536-1.839c-1.467-3.291-1.821-7.066-0.992-10.572c0.531-2.247,0.972-4.517,1.355-6.801
								c-0.127-0.137-0.25-0.276-0.378-0.413C261.385,218.332,260.447,222.958,259.651,227.608z"/>
							<path style="fill:#F2AB88;" d="M262.833,214.15c0.285-1.696,0.542-3.399,0.763-5.11c-0.396,1.562-0.776,3.128-1.141,4.697
								C262.582,213.874,262.706,214.013,262.833,214.15z"/>
						</g>
						<path style="opacity:0.43;fill:#F2AB88;" d="M205.187,243.899c-2.004-5.287-3.755-11.258-1.539-16.46
							c1.598-3.751,5.087-6.458,8.904-7.891c3.816-1.434,7.96-1.731,12.037-1.763c1.992-0.016,4.044,0.018,5.893-0.72
							c2.32-0.926,4-2.926,5.793-4.666c2.982-2.894,6.514-5.22,10.351-6.816c1.182-0.492,2.436-0.922,3.714-0.834
							c3.922,0.268,5.816,4.847,6.732,8.67c1.299,5.426,2.403,10.898,3.31,16.402c0.68,4.127,1.25,8.319,0.848,12.482
							c-0.782,8.083-5.135,15.343-9.683,22.071c-2.842,4.205-5.843,8.37-9.671,11.702c-2.709,2.359-8.727,6.818-12.666,5.969
							c-3.727-0.803-7.558-7.432-9.689-10.407C213.437,263.146,208.879,253.642,205.187,243.899z"/>
						<path style="fill:none;stroke:#D3835F;stroke-linecap:round;stroke-linejoin:round;stroke-miterlimit:10;" d="
							M231.125,236.214c-5.51,14.102-7.317,29.632-5.193,44.623"/>
						<g>
							<path style="fill:#F2AB88;" d="M215.901,307.344c9.624-2.484,18.258-8.74,23.446-17.218
								c-7.786,5.4-18.113,6.952-27.143,4.077c-7.342-2.337-13.691-7.557-17.546-14.215c-3.746,3.957-6.447,8.78-9.025,13.585
								c-1.287,2.398-2.549,4.81-3.801,7.227c1.596,1.237,3.32,2.322,5.089,3.227C195.769,308.557,206.277,309.828,215.901,307.344z
								"/>
						</g>
						<g>
							<path style="fill:#FFC59A;" d="M229.121,202.28c2.483-4.756,5.681-9.139,9.454-12.954c1.688-1.707,3.682-3.387,6.077-3.56
								c2.769-0.199,5.23,1.658,7.288,3.521c3.555,3.22,6.81,6.771,9.709,10.591c1.575,2.076,3.068,4.276,3.827,6.769
								c0.763,2.505,0.745,5.172,0.722,7.791c-0.031,3.412-0.062,6.824-0.094,10.235c-0.015,1.616-0.102,3.412-1.25,4.549
								c-1.147,1.136-3.06,1.197-4.517,0.501c-1.457-0.695-2.53-2-3.4-3.36c-2.169-3.39-3.375-7.389-3.441-11.413
								c-2.936-2.485-6.005-4.512-8.941-6.997c-0.954-0.807-1.942-1.634-3.136-2.003c-1.461-0.452-3.031-0.162-4.557-0.053
								c-2.598,0.185-5.233-0.177-7.685-1.056C228.304,204.53,228.692,203.102,229.121,202.28z"/>
							<g>
								<path style="fill:#F2AB88;" d="M256.247,210.387c-1.191-2.588-3.14-4.747-5.168-6.747
									c-3.246-3.201-6.865-6.167-11.138-7.754c-1.924-0.715-4.004-1.111-6.062-1.114c-1.786,2.368-3.385,4.878-4.758,7.508
									c-0.429,0.822-0.817,2.25,0.056,2.563c2.452,0.879,5.087,1.241,7.685,1.056c1.526-0.109,3.096-0.399,4.557,0.053
									c1.194,0.369,2.182,1.196,3.136,2.003c2.936,2.485,6.005,4.513,8.941,6.997c0.066,4.024,1.272,8.023,3.441,11.413
									c0.87,1.36,1.943,2.664,3.4,3.36c0.717,0.342,1.545,0.499,2.337,0.437c-1.919-3.667-3.367-7.58-4.263-11.621
									C257.8,215.789,257.425,212.947,256.247,210.387z"/>
							</g>
							<g>
								<path style="fill:#7267CB;" d="M264.853,229.223c1.148-1.137,1.235-2.933,1.25-4.549c0.019-2.131,0.039-4.262,0.058-6.393
									c-0.999-0.313-2.021-0.364-2.972,0.084c-2.324,1.096-2.587,4.262-2.349,6.82c0.159,1.706,0.423,3.461,1.181,4.976
									C263.066,230.234,264.117,229.953,264.853,229.223z"/>
							</g>
						</g>
						<g>
							<path style="fill:#FFC59A;" d="M230.397,199.556c1.433-0.679,2.961-1.376,4.536-1.194c2.162,0.25,3.781,2.068,4.982,3.883
								c4.314,6.515,6.009,14.367,7.62,22.013c1.408,6.685,2.817,13.37,4.225,20.055c0.122,0.577,0.244,1.169,0.152,1.752
								c-0.375,2.389-3.791,2.806-5.981,1.78c-3.336-1.564-5.541-4.838-7.08-8.186c-1.538-3.348-2.591-6.932-4.502-10.083
								c-2.009-3.314-4.866-5.942-7.837-8.378c-2.671-2.191-7.191-4.431-8.943-7.469
								C213.711,207.035,225.797,201.738,230.397,199.556z"/>
							<g>
								<path style="fill:#F2AB88;" d="M244.591,240.54c-3.145-6.003-4.848-12.667-7.872-18.732
									c-3.441-6.902-8.498-12.831-14.19-18.081c-3.988,2.62-7.226,6.069-4.958,10.001c1.752,3.038,6.272,5.278,8.943,7.469
									c2.971,2.436,5.827,5.065,7.837,8.378c1.911,3.15,2.963,6.735,4.502,10.083c1.538,3.348,3.744,6.622,7.08,8.186
									c1.249,0.585,2.896,0.699,4.151,0.247C247.87,245.914,246.025,243.276,244.591,240.54z"/>
							</g>
							<g>
								<path style="fill:#7267CB;" d="M250.351,237.627c-0.305-0.235-0.611-0.469-0.929-0.686c-0.735-0.501-1.534-0.962-2.418-1.07
									c-0.883-0.108-1.87,0.214-2.325,0.979c-0.369,0.621-0.329,1.394-0.253,2.112c0.333,3.165,1.151,6.275,2.397,9.203
									c2.122,0.565,4.762-0.017,5.089-2.101c0.091-0.583-0.031-1.175-0.152-1.752C251.29,242.084,250.821,239.855,250.351,237.627
									z"/>
							</g>
						</g>
						<g>
							<path style="fill:#FFC59A;" d="M202.922,212.367c2.227-3.049,4.834-6.315,8.551-6.976c4.503-0.801,8.597,2.515,11.959,5.617
								c3.121,2.881,6.283,5.837,8.371,9.536c2.304,4.083,3.151,8.803,3.962,13.421c0.311,1.77,0.51,3.887-0.836,5.077
								c-1.253,1.108-3.295,0.763-4.616-0.264c-1.321-1.026-2.125-2.559-3.009-3.979c-3.495-5.613-4.158-11.216-14.997-12.463
								c1.348,0.527-5.149,8.331-5.993,8.878c-2.579,1.673-7.304,2.872-9.706,0.217C191.96,226.298,200.069,216.272,202.922,212.367
								z"/>
							<g>
								<path style="fill:#F2AB88;" d="M215.633,217.589c-1.133-0.653-2.367-1.322-3.668-1.188
									c-2.367,0.245-3.598,2.855-4.534,5.043c-1.76,4.113-4.048,7.997-6.776,11.542c2.033-0.023,4.193-0.819,5.66-1.77
									c0.844-0.548,7.341-8.351,5.993-8.878c10.838,1.247,11.501,6.85,14.997,12.463c0.884,1.42,1.688,2.952,3.009,3.979
									c0.694,0.539,1.586,0.882,2.459,0.933c-1.183-3.988-2.141-8.093-4.368-11.588
									C225.406,223.424,220.463,220.373,215.633,217.589z"/>
							</g>
							<g>
								<path style="fill:#7267CB;" d="M232.1,229.703c-1.564,0.5-1.739,2.634-1.47,4.254c0.323,1.945,0.874,3.848,1.597,5.683
									c0.969,0.191,1.97,0.05,2.702-0.598c1.346-1.19,1.147-3.307,0.836-5.077c-0.16-0.911-0.325-1.826-0.499-2.739
									c-0.089-0.118-0.173-0.24-0.269-0.352C234.279,230.034,233.152,229.367,232.1,229.703z"/>
							</g>
						</g>
					</g>
				</g>
				<g>
					<path style="fill:#F2AB88;" d="M540.29,428.847c10.474,12.458,14.433,29.367,14.145,45.641
						c-0.153,8.644-1.403,17.19-3.156,25.663c6.698,0.067,11.452,0.107,11.452,0.107c1.065-15.823,2.13-31.646,3.195-47.469
						c0.577-8.574,1.642-17.16,5.515-24.831c0.415-0.822,0.83-1.648,1.243-2.48C562.798,430.561,550.979,431.977,540.29,428.847z"/>
				</g>
				<g>
					<path style="fill:#F2AB88;" d="M529.631,357.281c0.314-6.644,0.629-13.307,1.721-19.869
						c1.729-10.385,5.461-20.416,10.846-29.46c-0.269-1.708-0.919-3.267-2.411-4.007c-4.029,0.163-6.347,4.572-7.598,8.405
						c-7.04,21.57-6.141,45.414-5.599,68.181c0.592,0.649,1.204,1.281,1.855,1.883C528.841,374.036,529.236,365.658,529.631,357.281
						z"/>
				</g>
				<path style="fill:none;stroke:#D3835F;stroke-linecap:round;stroke-linejoin:round;stroke-miterlimit:10;" d="M534.425,377.596
					c7.771,1.264,14.455,6.024,20.826,10.65c3.162,2.296,6.324,4.591,9.485,6.887"/>
				<path style="fill:none;stroke:#D3835F;stroke-linecap:round;stroke-linejoin:round;stroke-miterlimit:10;" d="M532.071,385.597
					c7.435,10.503,11.45,23.387,11.297,36.255c0.117,0.292,0.613-0.175,0.329-0.309"/>
				<g>
					<path style="fill:#FFC59A;" d="M546.491,367.058c-1.848,1.952-3.695,3.905-5.543,5.857c-1.159,1.225-2.811,2.559-4.339,1.846
						c-0.873-0.407-1.351-1.402-1.405-2.364c-0.055-0.961,0.241-1.905,0.547-2.818c1.338-3.989,2.949-7.884,4.778-11.673
						c0.8-1.658,1.659-3.319,2.917-4.663c1.258-1.344,2.98-2.352,4.82-2.372c2.113-0.024,4.07,1.258,5.382,2.915
						c1.552,1.96,4.051,5.801,2.158,7.847c-0.791,0.855-3.32,0.839-4.393,1.354C549.467,363.92,547.954,365.513,546.491,367.058z"/>
					<path style="fill:#FFC59A;" d="M569.854,376.842c-1.183-4.7-2.97-9.248-5.304-13.496c-0.368-0.67-0.77-1.355-1.401-1.786
						c-0.691-0.471-1.56-0.574-2.392-0.663c-2.549-0.273-5.674-0.281-7.007,1.909c-0.46,0.756-0.607,1.655-0.776,2.524
						c-1.791,9.208-7.087,17.735-7.098,27.116c-0.002,1.347,0.342,3.005,1.636,3.38c0.621,0.18,1.29-0.012,1.876-0.287
						c2.518-1.182,4.061-3.739,5.349-6.205c3.139-6.007,5.667-12.334,7.531-18.85C564.928,374.961,568.146,374.038,569.854,376.842z
						"/>
					<path style="fill:#FFC59A;" d="M571.538,376.06c-2.768,1.37-4.946,3.683-6.908,6.068c-3.723,4.526-6.905,9.496-9.457,14.771
						c-0.624,1.289-1.055,3.158,0.179,3.885c0.937,0.552,2.115-0.056,2.988-0.705c5.766-4.283,9.887-11.017,16.651-13.434
						c1.499-0.536,3.169-0.886,4.255-2.051c1.057-1.134,1.315-2.853,0.951-4.36C579.161,375.946,575.547,374.076,571.538,376.06z"/>
					<g>
						<path style="opacity:0.36;fill:#F2AB88;" d="M540.503,369.451c-1.12,1.872-2.43,3.747-4.02,5.223
							c0.045,0.025,0.078,0.066,0.125,0.088c1.528,0.712,3.18-0.622,4.339-1.846c1.848-1.952,3.695-3.905,5.543-5.857
							c1.462-1.545,2.976-3.138,4.922-4.071c1.073-0.515,3.602-0.499,4.393-1.354c0.873-0.943,0.807-2.268,0.336-3.615
							c-3.114,0.066-6.13,0.64-8.671,2.377C544.3,362.565,542.476,366.154,540.503,369.451z"/>
					</g>
					<g>
						<path style="opacity:0.36;fill:#F2AB88;" d="M564.357,368.038c-0.811-0.509-1.648-1.069-2.603-1.144
							c-2.305-0.181-3.767,2.366-4.553,4.539c-2.937,8.125-4.88,16.835-8.797,24.424c0.338-0.056,0.673-0.173,0.984-0.319
							c2.518-1.182,4.061-3.739,5.349-6.205c3.139-6.007,5.667-12.334,7.531-18.85c2.659,4.477,5.878,3.554,7.586,6.359
							c-0.601-2.389-1.362-4.736-2.267-7.027C566.48,369.28,565.398,368.691,564.357,368.038z"/>
					</g>
					<g>
						<path style="opacity:0.36;fill:#F2AB88;" d="M564.285,389.073c-1.94,2.211-3.536,4.697-5.356,7.007
							c-1.219,1.548-2.54,3.017-3.949,4.395c0.102,0.117,0.223,0.222,0.371,0.309c0.937,0.552,2.115-0.056,2.988-0.705
							c5.766-4.283,9.887-11.017,16.651-13.434c1.499-0.536,3.169-0.886,4.255-2.051c1.057-1.134,1.315-2.853,0.951-4.36
							c-0.037-0.154-0.085-0.298-0.129-0.446C574.018,381.166,568.381,384.406,564.285,389.073z"/>
					</g>
					<g>
						<path style="fill:#7267CB;" d="M540.832,366.27c-0.288-0.089-0.594,0.041-0.859,0.183c-2.145,1.152-3.573,3.19-4.753,5.367
							c-0.015,0.191-0.027,0.383-0.016,0.576c0.055,0.961,0.532,1.957,1.405,2.364c0.926,0.432,1.896,0.107,2.776-0.484
							c1.18-2.133,2.069-4.384,2.039-6.791C541.417,367.003,541.293,366.413,540.832,366.27z"/>
						<path style="fill:#7267CB;" d="M553.163,386.616c-0.258-0.371-0.642-0.693-1.093-0.72c-0.326-0.02-0.641,0.116-0.928,0.272
							c-1.382,0.746-2.35,1.927-3.08,3.302c-0.111,0.984-0.183,1.974-0.184,2.976c-0.002,1.347,0.342,3.005,1.636,3.38
							c0.621,0.18,1.29-0.012,1.876-0.287c0.222-0.104,0.427-0.231,0.634-0.356c0.382-1.239,0.763-2.478,1.145-3.718
							C553.661,389.862,554.119,387.993,553.163,386.616z"/>
						<path style="fill:#7267CB;" d="M561.817,392.887c-0.383-0.072-0.771,0.073-1.125,0.237c-0.896,0.414-1.714,0.982-2.444,1.647
							c-0.369,0.704-0.729,1.413-1.075,2.128c-0.624,1.289-1.055,3.158,0.179,3.885c0.937,0.552,2.115-0.056,2.988-0.705
							c0.177-0.131,0.347-0.271,0.521-0.407c0.65-1.234,1.227-2.508,1.69-3.824C562.935,394.753,562.96,393.101,561.817,392.887z"/>
					</g>
				</g>
			</g>
		</g>
		<g>
			<g>
				<g>
					<g>
						
							<circle style="fill:none;stroke:#AEFFF1;stroke-linecap:round;stroke-linejoin:round;stroke-miterlimit:10;" cx="258.347" cy="145.167" r="25.464"/>
						
							<ellipse transform="matrix(0.231 -0.973 0.973 0.231 57.4385 363.0028)" style="fill:#AEFFF1;" cx="258.347" cy="145.167" rx="12.124" ry="12.124"/>
						<path style="opacity:0.6;fill:#AEFFF1;" d="M243.556,127.013c0,1.936-1.569,3.505-3.505,3.505
							c-1.936,0-3.505-1.569-3.505-3.505c0-1.936,1.569-3.505,3.505-3.505C241.987,123.508,243.556,125.077,243.556,127.013z"/>
						<path style="opacity:0.6;fill:#AEFFF1;" d="M282.693,158.854c0,1.936-1.569,3.505-3.505,3.505
							c-1.936,0-3.505-1.569-3.505-3.505c0-1.936,1.569-3.505,3.505-3.505C281.124,155.348,282.693,156.918,282.693,158.854z"/>
					</g>
					<g style="opacity:0.6;">
						<path style="fill:#AEFFF1;" d="M250.549,162.474c-6.139-2.678-10.41-8.227-11.426-14.846c-0.151-0.976-0.227-1.98-0.227-2.983
							c0-0.461,0.016-0.922,0.048-1.377c0.224-3.182-1.857-5.995-4.942-6.689l-0.191-0.043c-1.811-0.407-3.701-0.005-5.191,1.102
							c-1.493,1.108-2.425,2.81-2.559,4.666c-0.055,0.774-0.083,1.562-0.083,2.34c0,1.658,0.126,3.321,0.376,4.945
							c1.699,11.071,8.854,20.332,19.139,24.774c0.792,0.342,1.637,0.513,2.482,0.513c0.942,0,1.883-0.211,2.754-0.633
							c1.675-0.812,2.911-2.307,3.391-4.104l0.049-0.185C254.985,166.893,253.464,163.747,250.549,162.474z"/>
						<path style="fill:#AEFFF1;" d="M269.44,114.228c-1.767-0.646-3.716-0.488-5.348,0.428c-1.617,0.907-2.754,2.471-3.12,4.292
							l-0.036,0.177c-0.614,3.063,1.123,6.169,4.041,7.227c7.669,2.781,12.82,10.132,12.82,18.322
							c-0.006,3.204,2.266,5.879,5.407,6.362l0.173,0.026c0.324,0.05,0.649,0.075,0.971,0.075c1.508,0,2.978-0.535,4.144-1.528
							c1.401-1.197,2.213-2.934,2.224-4.785v-0.178C290.716,131.098,282.166,118.873,269.44,114.228z"/>
					</g>
					<path style="opacity:0.6;fill:#AEFFF1;" d="M319.803,40.564c3.19,1.958,4.189,6.131,2.231,9.322
						c-1.958,3.19-6.131,4.189-9.322,2.231c-3.19-1.958-4.189-6.131-2.231-9.321C312.44,39.605,316.613,38.606,319.803,40.564z"/>
					<path style="opacity:0.6;fill:#AEFFF1;" d="M327.22,76.593c3.19,1.958,4.189,6.131,2.231,9.322
						c-1.958,3.19-6.131,4.189-9.322,2.231c-3.19-1.958-4.189-6.131-2.231-9.321C319.857,75.634,324.03,74.635,327.22,76.593z"/>
				</g>
				
					<ellipse transform="matrix(0.7071 -0.7071 0.7071 0.7071 -27.3267 224.5655)" style="fill:none;stroke:#AEFFF1;stroke-linecap:round;stroke-linejoin:round;stroke-miterlimit:10;" cx="257.411" cy="145.269" rx="70.409" ry="70.409"/>
				
					<ellipse transform="matrix(0.4086 -0.9127 0.9127 0.4086 19.6351 320.8427)" style="fill:none;stroke:#AEFFF1;stroke-linecap:round;stroke-linejoin:round;stroke-miterlimit:10;" cx="257.411" cy="145.269" rx="47.731" ry="47.731"/>
				<g style="opacity:0.6;">
					<path style="fill:#AEFFF1;" d="M305.499,196c4.362,4.596,3.731,12.056-1.453,15.7c-22.597,15.885-52.065,19.32-78.015,8.405
						c-3.8-1.598-7.523-3.51-11.063-5.683c-1.671-1.026-3.305-2.111-4.895-3.252c-5.217-3.742-5.902-11.242-1.426-15.844
						l0.353-0.363c3.634-3.737,9.432-4.194,13.674-1.164c1.144,0.817,2.319,1.596,3.52,2.333c2.613,1.604,5.358,3.014,8.157,4.191
						c19.006,7.994,40.581,5.515,57.172-6.054c4.261-2.971,10.044-2.413,13.62,1.355L305.499,196z"/>
				</g>
				<g style="opacity:0.6;">
					<path style="fill:#AEFFF1;" d="M302.646,92.008l-0.316,0.373c-3.386,3.997-9.163,4.821-13.623,2.074
						c-0.026-0.016-0.052-0.032-0.078-0.048c-21.598-13.256-49.074-11.232-68.409,4.165c-4.029,3.208-9.816,2.928-13.589-0.577
						l-0.362-0.337c-4.739-4.402-4.363-11.954,0.705-15.972c26.29-20.843,63.571-23.56,92.882-5.571
						c0.138,0.085,0.275,0.17,0.413,0.255C305.67,79.73,306.758,87.154,302.646,92.008z"/>
				</g>
				
					<ellipse transform="matrix(0.7071 -0.7071 0.7071 0.7071 -27.3266 224.5655)" style="fill:none;stroke:#AEFFF1;stroke-linecap:round;stroke-linejoin:round;stroke-miterlimit:10;" cx="257.411" cy="145.269" rx="90.849" ry="90.849"/>
				
					<ellipse transform="matrix(0.7071 -0.7071 0.7071 0.7071 -27.3266 224.5655)" style="fill:none;stroke:#AEFFF1;stroke-linecap:round;stroke-linejoin:round;stroke-miterlimit:10;" cx="257.411" cy="145.269" rx="115.672" ry="115.672"/>
				<g style="opacity:0.6;">
					<path style="fill:#AEFFF1;" d="M288.325,34.479c-1.471,5.375-6.804,8.679-12.293,7.715c-16.862-2.96-34.196-1.75-50.669,3.599
						c-17.421,5.657-32.835,15.639-45.071,29.11c-3.738,4.115-9.977,4.734-14.417,1.39l-0.004-0.003
						c-5.064-3.814-5.712-11.142-1.45-15.834c14.74-16.228,33.316-28.255,54.314-35.074c19.886-6.457,40.822-7.902,61.186-4.294
						C286.11,22.184,289.984,28.417,288.325,34.479L288.325,34.479z"/>
				</g>
				<g style="opacity:0.6;">
					<path style="fill:#AEFFF1;" d="M141.791,137.46c5.564,0.303,9.92,4.817,10.137,10.386c0.668,17.107,5.512,33.794,14.22,48.766
						c9.209,15.833,22.221,28.791,37.972,37.906c4.811,2.784,6.734,8.752,4.403,13.798l-0.002,0.005
						c-2.658,5.755-9.684,7.936-15.171,4.761c-18.975-10.98-34.654-26.596-45.754-45.681c-10.512-18.074-16.345-38.232-17.12-58.899
						C130.24,142.221,135.515,137.118,141.791,137.46L141.791,137.46z"/>
				</g>
			</g>
			<g>
				<g>
					
						<ellipse transform="matrix(0.5777 -0.8163 0.8163 0.5777 -23.4715 566.6603)" style="fill:none;stroke:#AEFFF1;stroke-linecap:round;stroke-linejoin:round;stroke-miterlimit:10;" cx="535.892" cy="306.013" rx="20.283" ry="20.283"/>
					
						<ellipse transform="matrix(0.7071 -0.7071 0.7071 0.7071 -59.4249 468.5621)" style="fill:#AEFFF1;" cx="535.892" cy="306.013" rx="9.657" ry="9.657"/>
					<path style="opacity:0.6;fill:#AEFFF1;" d="M524.111,291.553c0,1.542-1.25,2.792-2.792,2.792c-1.542,0-2.792-1.25-2.792-2.792
						s1.25-2.792,2.792-2.792C522.861,288.761,524.111,290.011,524.111,291.553z"/>
					<circle style="opacity:0.6;fill:#AEFFF1;" cx="552.493" cy="316.915" r="2.792"/>
					<path style="opacity:0.6;fill:#AEFFF1;" d="M636.223,304.7c0,3.081-2.498,5.579-5.579,5.579c-3.082,0-5.58-2.498-5.58-5.579
						c0-3.081,2.498-5.579,5.58-5.579C633.725,299.121,636.223,301.619,636.223,304.7z"/>
					<circle style="opacity:0.6;fill:#AEFFF1;" cx="608.559" cy="325.419" r="5.579"/>
					<circle style="opacity:0.6;fill:#AEFFF1;" cx="588.648" cy="330.586" r="5.579"/>
				</g>
				
					<ellipse transform="matrix(0.1573 -0.9875 0.9875 0.1573 149.3728 787.0821)" style="fill:none;stroke:#AEFFF1;stroke-linecap:round;stroke-linejoin:round;stroke-miterlimit:10;" cx="535.892" cy="306.013" rx="57.963" ry="57.963"/>
				
					<circle style="fill:none;stroke:#AEFFF1;stroke-linecap:round;stroke-linejoin:round;stroke-miterlimit:10;" cx="535.892" cy="306.013" r="36.791"/>
				<g style="opacity:0.6;">
					<path style="fill:#AEFFF1;" d="M521.006,361.599c-1.346,5.04-6.852,7.81-11.641,5.741
						c-20.876-9.014-35.976-28.21-39.493-51.117c-0.515-3.355-0.777-6.79-0.777-10.21c0-1.615,0.058-3.228,0.173-4.835
						c0.379-5.272,5.346-8.982,10.503-7.823l0.407,0.091c4.187,0.94,7.004,4.812,6.705,9.092c-0.081,1.155-0.121,2.314-0.121,3.475
						c0,2.524,0.193,5.058,0.572,7.528c2.576,16.778,13.606,30.848,28.868,37.506c3.919,1.71,6.018,6.008,4.914,10.139
						L521.006,361.599z"/>
				</g>
				<g style="opacity:0.6;">
					<path style="fill:#AEFFF1;" d="M592.74,314.815l-0.397-0.061c-4.262-0.654-7.328-4.353-7.321-8.665c0-0.025,0-0.051,0-0.076
						c0-20.862-13.252-39.268-32.382-46.204c-3.986-1.445-6.281-5.626-5.447-9.783l0.08-0.399c1.048-5.22,6.508-8.209,11.51-6.383
						c25.945,9.47,43.906,34.457,43.906,62.769c0,0.133,0,0.266-0.001,0.4C602.657,311.65,597.917,315.609,592.74,314.815z"/>
				</g>
				<g style="opacity:0.6;">
					<path style="fill:#AEFFF1;" d="M529.681,319.799c-4.89-2.133-8.292-6.553-9.102-11.825c-0.12-0.777-0.181-1.577-0.181-2.376
						c0-0.367,0.013-0.734,0.038-1.097c0.179-2.534-1.479-4.775-3.936-5.328l-0.152-0.034c-1.442-0.324-2.948-0.004-4.135,0.878
						c-1.189,0.883-1.932,2.238-2.038,3.717c-0.044,0.616-0.066,1.244-0.066,1.864c0,1.32,0.101,2.646,0.3,3.938
						c1.354,8.818,7.053,16.195,15.245,19.733c0.631,0.272,1.304,0.408,1.977,0.408c0.75,0,1.5-0.168,2.193-0.504
						c1.334-0.646,2.318-1.838,2.701-3.268l0.039-0.148C533.214,323.319,532.003,320.813,529.681,319.799z"/>
					<path style="fill:#AEFFF1;" d="M544.728,281.37c-1.407-0.515-2.96-0.389-4.26,0.341c-1.288,0.723-2.193,1.968-2.485,3.419
						l-0.028,0.141c-0.489,2.439,0.895,4.914,3.219,5.757c6.108,2.215,10.212,8.07,10.212,14.594
						c-0.005,2.552,1.805,4.683,4.307,5.067l0.138,0.021c0.258,0.04,0.517,0.06,0.773,0.06c1.201,0,2.372-0.426,3.301-1.217
						c1.116-0.953,1.763-2.337,1.772-3.811v-0.142C561.675,294.807,554.865,285.07,544.728,281.37z"/>
				</g>
				
					<circle style="fill:none;stroke:#AEFFF1;stroke-linecap:round;stroke-linejoin:round;stroke-miterlimit:10;" cx="535.892" cy="306.013" r="74.79"/>
				
					<circle style="fill:none;stroke:#AEFFF1;stroke-linecap:round;stroke-linejoin:round;stroke-miterlimit:10;" cx="535.892" cy="306.013" r="95.225"/>
				<g style="opacity:0.6;">
					<path style="fill:#AEFFF1;" d="M626.937,279.993c-4.405,1.282-9.019-1.036-10.707-5.303
						c-5.184-13.105-13.498-24.746-24.345-34.001c-11.471-9.787-25.113-16.303-39.833-19.087c-4.496-0.85-7.618-4.962-7.184-9.517
						l0-0.004c0.495-5.195,5.358-8.806,10.485-7.836c17.733,3.354,34.171,11.208,47.998,23.004
						c13.094,11.172,23.123,25.239,29.362,41.08C634.61,273.145,631.905,278.547,626.937,279.993L626.937,279.993z"/>
				</g>
				<g style="opacity:0.6;">
					<path style="fill:#AEFFF1;" d="M491.581,221.528c2.184,4.035,0.892,9.035-2.921,11.585
						c-11.715,7.835-21.337,18.42-28.092,30.977c-7.143,13.279-10.631,27.989-10.244,42.966c0.118,4.575-3.241,8.494-7.785,9.032
						l-0.004,0.001c-5.182,0.613-9.739-3.377-9.874-8.594c-0.467-18.042,3.737-35.767,12.348-51.774
						c8.154-15.158,19.786-27.932,33.952-37.376C483.267,215.475,489.119,216.978,491.581,221.528L491.581,221.528z"/>
				</g>
				<g style="opacity:0.6;">
					<path style="fill:#AEFFF1;" d="M456.556,361.62l0.006-0.004c3.804-2.536,8.901-1.738,11.775,1.817
						c2.534,3.133,5.277,6.082,8.204,8.814c18.384,17.165,43.396,25.368,68.22,22.692c4.563-0.492,8.766,2.508,9.683,7.005l0,0
						c1.034,5.068-2.484,9.981-7.626,10.543c-29.949,3.274-60.145-6.608-82.334-27.326c-3.558-3.322-6.889-6.906-9.961-10.714
						C451.284,370.432,452.263,364.482,456.556,361.62z"/>
				</g>
			</g>
			<g>
				<path style="fill:#AEFFF1;" d="M662.677,135.969c-0.388-0.776-0.957-1.476-1.708-2.102c-0.751-0.625-1.665-1.169-2.74-1.633
					c-0.516-0.222-1.068-0.423-1.652-0.608v-7.838c0.315,0.133,0.624,0.284,0.92,0.47c1.038,0.651,1.933,1.59,2.684,2.815
					l2.853-2.815c-0.876-1.501-2.071-2.646-3.585-3.435c-0.872-0.454-1.831-0.772-2.872-0.965v-2.92h-3.641v2.76
					c-1.229,0.117-2.362,0.415-3.397,0.899c-1.364,0.638-2.446,1.508-3.247,2.609c-0.801,1.102-1.201,2.365-1.201,3.791
					c0,1.426,0.294,2.678,0.882,3.754c0.588,1.076,1.476,1.965,2.665,2.665c0.792,0.467,1.733,0.849,2.797,1.16v8.033
					c-0.477-0.158-0.934-0.346-1.352-0.597c-1.126-0.675-2.303-1.889-3.528-3.641l-2.778,3.191c1.176,1.702,2.583,2.978,4.223,3.829
					c1.041,0.54,2.187,0.908,3.435,1.105v3.212h3.641v-3.101c1.396-0.122,2.636-0.432,3.716-0.934
					c1.426-0.663,2.527-1.608,3.303-2.834c0.775-1.226,1.163-2.677,1.163-4.354C663.259,137.583,663.065,136.744,662.677,135.969z
					 M649.445,128.33c-0.201-0.438-0.3-0.92-0.3-1.445c0-0.725,0.206-1.357,0.619-1.896c0.413-0.538,0.982-0.957,1.708-1.257
					c0.44-0.182,0.932-0.302,1.464-0.374v7.332c-0.32-0.094-0.624-0.192-0.901-0.295c-0.701-0.263-1.257-0.563-1.67-0.901
					C649.952,129.155,649.645,128.768,649.445,128.33z M658.529,141.336c-0.451,0.525-1.064,0.938-1.839,1.238
					c-0.5,0.194-1.041,0.318-1.614,0.387v-7.516c0.101,0.03,0.204,0.059,0.301,0.091c0.65,0.213,1.22,0.457,1.708,0.732
					c0.488,0.276,0.888,0.576,1.201,0.901c0.313,0.326,0.544,0.689,0.694,1.089c0.15,0.401,0.225,0.826,0.225,1.276
					C659.205,140.21,658.98,140.811,658.529,141.336z"/>
				
					<ellipse transform="matrix(0.2816 -0.9595 0.9595 0.2816 340.9509 723.1241)" style="fill:none;stroke:#AEFFF1;stroke-miterlimit:10;" cx="653.376" cy="133.876" rx="24.573" ry="24.573"/>
				
					<ellipse transform="matrix(0.2816 -0.9595 0.9595 0.2816 340.9509 723.1241)" style="fill:none;stroke:#AEFFF1;stroke-miterlimit:10;" cx="653.376" cy="133.876" rx="24.573" ry="24.573"/>
				<circle style="fill:none;stroke:#AEFFF1;stroke-miterlimit:10;" cx="653.376" cy="133.537" r="42.694"/>
				<g style="opacity:0.61;">
					<g>
						<path style="fill:#AEFFF1;" d="M685.872,126.197c-1.089,0-2.098-0.699-2.442-1.792c-3.654-11.606-13.798-20.144-25.842-21.752
							c-1.402-0.187-2.387-1.476-2.199-2.878c0.186-1.402,1.479-2.387,2.877-2.2c14.006,1.87,25.802,11.797,30.05,25.29
							c0.424,1.349-0.325,2.787-1.674,3.212C686.386,126.159,686.127,126.197,685.872,126.197z"/>
					</g>
					<g>
						<path style="fill:#AEFFF1;" d="M620.218,128.615c-0.194,0-0.39-0.022-0.587-0.068c-1.378-0.323-2.231-1.702-1.908-3.079
							c1.345-5.724,4.101-11.109,7.973-15.573c5.511-6.357,13.087-10.652,21.331-12.093c1.398-0.247,2.72,0.689,2.964,2.081
							c0.243,1.394-0.688,2.72-2.082,2.964c-7.087,1.239-13.602,4.934-18.344,10.403c-3.329,3.84-5.701,8.47-6.856,13.389
							C622.432,127.819,621.381,128.615,620.218,128.615z"/>
					</g>
					<g>
						<path style="fill:#AEFFF1;" d="M653.376,170.499c-17.323,0-32.412-12.299-35.879-29.246c-0.283-1.386,0.61-2.739,1.996-3.022
							c1.383-0.286,2.738,0.61,3.022,1.996c2.981,14.572,15.96,25.15,30.861,25.15c6.749,0,13.184-2.102,18.607-6.08
							c1.142-0.837,2.744-0.589,3.58,0.551c0.836,1.141,0.59,2.743-0.55,3.58C668.704,168.054,661.223,170.499,653.376,170.499z"/>
					</g>
					<g>
						<path style="fill:#AEFFF1;" d="M680.051,157.619c-0.558,0-1.12-0.181-1.592-0.557c-1.108-0.88-1.292-2.491-0.411-3.599
							c3.385-4.257,5.617-9.338,6.452-14.692c0.217-1.397,1.531-2.357,2.924-2.136c1.398,0.218,2.354,1.528,2.136,2.925
							c-0.971,6.23-3.565,12.14-7.502,17.091C681.552,157.288,680.805,157.619,680.051,157.619z"/>
					</g>
				</g>
			</g>
			<g>
				<g>
					<path style="fill:#AEFFF1;" d="M85.728,320.078c-0.603-2.975-3.225-5.179-6.259-5.27c-2.808-0.084-5.209,1.569-6.255,3.938
						c-0.386-0.879-0.969-1.691-1.755-2.362c-2.499-2.133-6.267-2.083-8.706,0.118c-2.789,2.517-2.916,6.823-0.325,9.5
						l10.444,10.789c0.188,0.194,0.499,0.194,0.687,0l10.444-10.789C85.432,324.517,86.189,322.348,85.728,320.078z"/>
				</g>
				
					<ellipse transform="matrix(0.4332 -0.9013 0.9013 0.4332 -250.607 249.6908)" style="fill:none;stroke:#AEFFF1;stroke-miterlimit:10;" cx="73.217" cy="324.094" rx="21.317" ry="21.317"/>
				
					<ellipse transform="matrix(0.4332 -0.9013 0.9013 0.4332 -250.607 249.6908)" style="fill:none;stroke:#AEFFF1;stroke-miterlimit:10;" cx="73.217" cy="324.094" rx="21.317" ry="21.317"/>
				<circle style="fill:none;stroke:#AEFFF1;stroke-miterlimit:10;" cx="73.217" cy="324.094" r="37.036"/>
				<g style="opacity:0.61;">
					<g>
						<path style="fill:#AEFFF1;" d="M101.406,317.433c-0.944,0-1.82-0.607-2.118-1.555c-3.169-10.068-11.969-17.474-22.418-18.869
							c-1.216-0.162-2.071-1.28-1.908-2.496c0.161-1.216,1.283-2.07,2.496-1.908c12.15,1.622,22.382,10.233,26.068,21.938
							c0.368,1.17-0.282,2.418-1.452,2.787C101.852,317.4,101.627,317.433,101.406,317.433z"/>
					</g>
					<g>
						<path style="fill:#AEFFF1;" d="M44.453,319.531c-0.168,0-0.339-0.019-0.509-0.06c-1.195-0.28-1.935-1.476-1.655-2.671
							c1.166-4.965,3.557-9.637,6.916-13.509c4.781-5.515,11.352-9.24,18.504-10.491c1.212-0.214,2.36,0.598,2.571,1.806
							c0.211,1.209-0.597,2.36-1.806,2.572c-6.148,1.075-11.799,4.28-15.913,9.024c-2.888,3.331-4.945,7.347-5.947,11.615
							C46.374,318.84,45.462,319.531,44.453,319.531z"/>
					</g>
					<g>
						<path style="fill:#AEFFF1;" d="M73.217,355.864c-15.027,0-28.117-10.669-31.124-25.37c-0.246-1.202,0.529-2.376,1.731-2.622
							c1.199-0.248,2.375,0.529,2.622,1.731c2.586,12.641,13.845,21.817,26.771,21.817c5.855,0,11.437-1.824,16.141-5.274
							c0.99-0.726,2.381-0.511,3.105,0.478c0.726,0.989,0.512,2.38-0.477,3.106C86.513,353.742,80.023,355.864,73.217,355.864z"/>
					</g>
					<g>
						<path style="fill:#AEFFF1;" d="M96.356,344.691c-0.484,0-0.972-0.158-1.381-0.483c-0.961-0.763-1.12-2.161-0.357-3.122
							c2.937-3.693,4.872-8.1,5.597-12.745c0.188-1.212,1.328-2.045,2.537-1.853c1.212,0.189,2.042,1.325,1.853,2.538
							c-0.843,5.404-3.093,10.531-6.508,14.826C97.658,344.404,97.011,344.691,96.356,344.691z"/>
					</g>
				</g>
			</g>
			<path style="fill:#AEFFF1;" d="M79.018,286.441c0,2.647-2.146,4.793-4.793,4.793s-4.793-2.146-4.793-4.793
				c0-2.647,2.146-4.793,4.793-4.793S79.018,283.794,79.018,286.441z"/>
			<path style="fill:#AEFFF1;" d="M155.949,189.971c0,2.647-2.146,4.793-4.793,4.793c-2.647,0-4.793-2.146-4.793-4.793
				c0-2.647,2.146-4.793,4.793-4.793C153.803,185.179,155.949,187.324,155.949,189.971z"/>
			<path style="fill:#AEFFF1;" d="M79.018,196.546c0,2.647-2.146,4.793-4.793,4.793s-4.793-2.146-4.793-4.793
				c0-2.647,2.146-4.793,4.793-4.793S79.018,193.899,79.018,196.546z"/>
			<path style="fill:#AEFFF1;" d="M148.415,165.102c0,2.647-2.146,4.793-4.793,4.793c-2.647,0-4.793-2.146-4.793-4.793
				c0-2.647,2.146-4.793,4.793-4.793C146.27,160.31,148.415,162.455,148.415,165.102z"/>
			<path style="fill:#AEFFF1;" d="M79.018,226.048c0,2.647-2.146,4.793-4.793,4.793s-4.793-2.146-4.793-4.793
				s2.146-4.793,4.793-4.793S79.018,223.401,79.018,226.048z"/>
			<path style="fill:#AEFFF1;" d="M615.474,128.615c0,2.647-2.146,4.793-4.793,4.793s-4.793-2.146-4.793-4.793
				c0-2.647,2.146-4.793,4.793-4.793S615.474,125.968,615.474,128.615z"/>
			<path style="fill:#AEFFF1;" d="M537.927,70.057c0,2.647-2.146,4.793-4.793,4.793c-2.647,0-4.793-2.146-4.793-4.793
				c0-2.647,2.146-4.793,4.793-4.793C535.781,65.264,537.927,67.41,537.927,70.057z"/>
			<path style="fill:#AEFFF1;" d="M700.616,231.223c0,2.647-2.146,4.793-4.793,4.793c-2.647,0-4.793-2.146-4.793-4.793
				c0-2.647,2.146-4.793,4.793-4.793C698.47,226.431,700.616,228.577,700.616,231.223z"/>
			<path style="fill:#AEFFF1;" d="M668.052,230.223c0,2.647-2.146,4.793-4.793,4.793s-4.793-2.146-4.793-4.793
				s2.146-4.793,4.793-4.793S668.052,227.577,668.052,230.223z"/>
			<path style="fill:#AEFFF1;" d="M540.726,144.415c0,2.647-2.146,4.793-4.793,4.793s-4.793-2.146-4.793-4.793
				s2.146-4.793,4.793-4.793S540.726,141.768,540.726,144.415z"/>
			<path style="fill:#AEFFF1;" d="M350.123,70.057c0,2.647-2.146,4.793-4.793,4.793c-2.647,0-4.793-2.146-4.793-4.793
				c0-2.647,2.146-4.793,4.793-4.793C347.977,65.264,350.123,67.41,350.123,70.057z"/>
			<polyline style="fill:none;stroke:#AEFFF1;stroke-linecap:round;stroke-linejoin:round;stroke-miterlimit:10;" points="
				74.225,286.441 74.225,228.048 151.156,189.971 			"/>
			<polyline style="fill:none;stroke:#AEFFF1;stroke-miterlimit:10;" points="610.682,128.615 533.134,70.057 345.33,70.057 			"/>
			<g>
				
					<ellipse transform="matrix(0.2281 -0.9736 0.9736 0.2281 138.3976 993.5848)" style="fill:none;stroke:#AEFFF1;stroke-linecap:round;stroke-linejoin:round;stroke-miterlimit:10;" cx="695.823" cy="409.509" rx="17.007" ry="17.007"/>
				
					<ellipse transform="matrix(0.2281 -0.9736 0.9736 0.2281 138.3976 993.5848)" style="fill:none;stroke:#AEFFF1;stroke-linecap:round;stroke-linejoin:round;stroke-miterlimit:10;" cx="695.823" cy="409.509" rx="17.007" ry="17.007"/>
				<path style="fill:none;stroke:#AEFFF1;stroke-linecap:round;stroke-linejoin:round;stroke-miterlimit:10;" d="M681.962,388.952
					c3.957-2.673,8.727-4.234,13.861-4.234c6.402,0,12.237,2.426,16.635,6.41"/>
				<path style="fill:none;stroke:#AEFFF1;stroke-linecap:round;stroke-linejoin:round;stroke-miterlimit:10;" d="M676.744,425.34
					c-3.567-4.294-5.712-9.812-5.712-15.831c0-6.461,2.472-12.345,6.521-16.757"/>
				<path style="fill:none;stroke:#AEFFF1;stroke-linecap:round;stroke-linejoin:round;stroke-miterlimit:10;" d="M707.403,431.435
					c-3.456,1.829-7.397,2.865-11.58,2.865c-5.474,0-10.534-1.774-14.636-4.779"/>
				<path style="fill:none;stroke:#AEFFF1;stroke-linecap:round;stroke-linejoin:round;stroke-miterlimit:10;" d="M715.993,395.092
					c2.909,4.062,4.621,9.04,4.621,14.417c0,6.584-2.567,12.568-6.754,17.007"/>
				<circle style="fill:#AEFFF1;" cx="695.823" cy="409.509" r="8.097"/>
				<circle style="opacity:0.6;fill:#AEFFF1;" cx="707.402" cy="420.991" r="2.341"/>
				<g style="opacity:0.6;">
					<path style="fill:#AEFFF1;" d="M679.313,408.417c-0.238,0-0.479-0.029-0.722-0.089c-1.608-0.397-2.59-2.023-2.192-3.632
						c2.21-8.946,10.197-15.194,19.424-15.194c3.168,0,6.322,0.76,9.122,2.197c1.474,0.757,2.056,2.565,1.299,4.039
						c-0.757,1.474-2.564,2.054-4.039,1.299c-1.984-1.019-4.131-1.535-6.382-1.535c-6.46,0-12.053,4.373-13.6,10.634
						C681.887,407.502,680.661,408.417,679.313,408.417z"/>
				</g>
				<g style="opacity:0.6;">
					<path style="fill:#AEFFF1;" d="M695.823,429.517c-8.526,0-16.127-5.411-18.912-13.465c-0.542-1.565,0.288-3.274,1.854-3.815
						c1.563-0.542,3.274,0.288,3.815,1.854c1.95,5.638,7.272,9.426,13.242,9.426c0.523,0,1.054-0.029,1.577-0.087
						c1.649-0.189,3.13,1.005,3.312,2.651c0.183,1.647-1.005,3.13-2.651,3.311C697.318,429.474,696.565,429.517,695.823,429.517z"/>
				</g>
				<g style="opacity:0.6;">
					<path style="fill:#AEFFF1;" d="M712.583,415.439c-0.171,0-0.343-0.015-0.517-0.045c-1.632-0.283-2.727-1.836-2.443-3.469
						c0.138-0.792,0.207-1.604,0.207-2.416c0-1.404-0.206-2.789-0.613-4.117c-0.485-1.584,0.405-3.262,1.989-3.747
						c1.586-0.488,3.262,0.404,3.747,1.989c0.582,1.897,0.877,3.874,0.877,5.875c0,1.154-0.1,2.311-0.295,3.441
						C715.282,414.41,714.015,415.439,712.583,415.439z"/>
				</g>
			</g>
			<g>
				
					<ellipse transform="matrix(0.3404 -0.9403 0.9403 0.3404 -28.0989 122.4297)" style="fill:none;stroke:#AEFFF1;stroke-linecap:round;stroke-linejoin:round;stroke-miterlimit:10;" cx="73.217" cy="81.243" rx="17.007" ry="17.007"/>
				
					<ellipse transform="matrix(0.3404 -0.9403 0.9403 0.3404 -28.0989 122.4297)" style="fill:none;stroke:#AEFFF1;stroke-linecap:round;stroke-linejoin:round;stroke-miterlimit:10;" cx="73.217" cy="81.243" rx="17.007" ry="17.007"/>
				<path style="fill:none;stroke:#AEFFF1;stroke-linecap:round;stroke-linejoin:round;stroke-miterlimit:10;" d="M59.356,60.686
					c3.957-2.673,8.726-4.234,13.861-4.234c6.402,0,12.237,2.426,16.635,6.41"/>
				<path style="fill:none;stroke:#AEFFF1;stroke-linecap:round;stroke-linejoin:round;stroke-miterlimit:10;" d="M54.138,97.074
					c-3.567-4.294-5.712-9.812-5.712-15.831c0-6.461,2.472-12.345,6.521-16.757"/>
				<path style="fill:none;stroke:#AEFFF1;stroke-linecap:round;stroke-linejoin:round;stroke-miterlimit:10;" d="M84.797,103.169
					c-3.456,1.829-7.397,2.865-11.58,2.865c-5.474,0-10.534-1.774-14.636-4.779"/>
				<path style="fill:none;stroke:#AEFFF1;stroke-linecap:round;stroke-linejoin:round;stroke-miterlimit:10;" d="M93.387,66.826
					c2.909,4.062,4.621,9.04,4.621,14.417c0,6.584-2.566,12.568-6.754,17.007"/>
				<circle style="fill:#AEFFF1;" cx="73.217" cy="81.243" r="8.097"/>
				<path style="opacity:0.6;fill:#AEFFF1;" d="M87.136,92.725c0,1.293-1.048,2.341-2.341,2.341c-1.293,0-2.341-1.048-2.341-2.341
					s1.048-2.341,2.341-2.341C86.088,90.384,87.136,91.432,87.136,92.725z"/>
				<g style="opacity:0.6;">
					<path style="fill:#AEFFF1;" d="M56.707,80.151c-0.238,0-0.479-0.029-0.722-0.089c-1.608-0.398-2.59-2.023-2.192-3.632
						c2.21-8.946,10.197-15.194,19.424-15.194c3.168,0,6.322,0.76,9.122,2.197c1.474,0.757,2.056,2.565,1.299,4.039
						c-0.757,1.474-2.563,2.054-4.039,1.299c-1.984-1.019-4.131-1.535-6.382-1.535c-6.46,0-12.053,4.373-13.6,10.634
						C59.281,79.236,58.055,80.151,56.707,80.151z"/>
				</g>
				<g style="opacity:0.6;">
					<path style="fill:#AEFFF1;" d="M73.217,101.251c-8.526,0-16.127-5.411-18.912-13.465c-0.542-1.565,0.288-3.274,1.854-3.815
						c1.563-0.542,3.274,0.288,3.815,1.854c1.95,5.638,7.271,9.426,13.242,9.426c0.523,0,1.054-0.029,1.577-0.087
						c1.649-0.189,3.13,1.005,3.312,2.651c0.183,1.647-1.005,3.13-2.651,3.312C74.712,101.209,73.959,101.251,73.217,101.251z"/>
				</g>
				<g style="opacity:0.6;">
					<path style="fill:#AEFFF1;" d="M89.977,87.173c-0.171,0-0.343-0.015-0.517-0.045c-1.632-0.283-2.727-1.836-2.443-3.469
						c0.138-0.792,0.207-1.604,0.207-2.416c0-1.404-0.206-2.789-0.613-4.117c-0.485-1.584,0.405-3.262,1.989-3.747
						c1.586-0.488,3.262,0.404,3.747,1.989c0.582,1.897,0.877,3.874,0.877,5.875c0,1.154-0.1,2.312-0.295,3.441
						C92.676,86.144,91.409,87.173,89.977,87.173z"/>
				</g>
			</g>
			<polyline style="fill:none;stroke:#AEFFF1;stroke-miterlimit:10;" points="695.823,409.509 695.823,229.614 663.259,229.614 
				536.071,143.473 535.892,306.013 			"/>
			<polyline style="fill:none;stroke:#AEFFF1;stroke-miterlimit:10;" points="73.217,81.243 73.217,195.994 143.623,166.025 			"/>
		</g>
	</g>
	<g>
		<g>
			<g>
				<polygon style="fill:#AEFFF1;" points="61.938,411.48 67.52,410.804 61.938,410.129 61.246,409.437 60.57,403.855 
					59.895,409.437 59.203,410.129 53.621,410.804 59.203,411.48 59.895,412.172 60.57,417.754 61.246,412.172 				"/>
			</g>
		</g>
		<g>
			<g>
				<polygon style="fill:#AEFFF1;" points="476.244,48.777 481.826,48.102 476.244,47.427 475.552,46.735 474.877,41.152 
					474.201,46.735 473.509,47.427 467.927,48.102 473.509,48.777 474.201,49.469 474.877,55.052 475.552,49.469 				"/>
			</g>
		</g>
		<g>
			<g>
				<polygon style="fill:#AEFFF1;" points="504.339,192.217 509.921,191.542 504.339,190.867 503.647,190.175 502.972,184.592 
					502.296,190.175 501.605,190.867 496.022,191.542 501.605,192.217 502.296,192.909 502.972,198.492 503.647,192.909 				"/>
			</g>
		</g>
		<g>
			<g>
				<polygon style="fill:#AEFFF1;" points="559.233,126.11 564.815,125.435 559.232,124.76 558.541,124.068 557.865,118.485 
					557.19,124.068 556.498,124.76 550.916,125.435 556.498,126.11 557.19,126.802 557.865,132.385 558.541,126.802 				"/>
			</g>
		</g>
		<g>
			<g>
				<polygon style="fill:#AEFFF1;" points="705.287,41.828 710.87,41.152 705.287,40.477 704.596,39.785 703.92,34.203 
					703.245,39.785 702.553,40.477 696.971,41.152 702.553,41.828 703.245,42.519 703.92,48.102 704.596,42.519 				"/>
			</g>
		</g>
		<g>
			<g>
				<polygon style="fill:#AEFFF1;" points="648.119,367.56 653.702,366.885 648.119,366.21 647.427,365.518 646.752,359.935 
					646.077,365.518 645.385,366.21 639.802,366.885 645.385,367.56 646.077,368.252 646.752,373.835 647.427,368.252 				"/>
			</g>
		</g>
		<g>
			<g>
				<polygon style="fill:#AEFFF1;" points="723.939,221.93 729.522,221.255 723.939,220.58 723.248,219.888 722.572,214.305 
					721.897,219.888 721.205,220.58 715.623,221.255 721.205,221.93 721.897,222.622 722.572,228.205 723.248,222.622 				"/>
			</g>
		</g>
		<g>
			<g>
				<polygon style="fill:#AEFFF1;" points="114.058,465.639 119.64,464.964 114.058,464.289 113.366,463.597 112.691,458.014 
					112.015,463.597 111.324,464.289 105.741,464.964 111.324,465.639 112.015,466.331 112.691,471.914 113.366,466.331 				"/>
			</g>
		</g>
		<g>
			<g>
				<polygon style="fill:#AEFFF1;" points="35.114,139.253 40.697,138.578 35.114,137.902 34.422,137.21 33.747,131.628 
					33.072,137.21 32.38,137.902 26.797,138.578 32.38,139.253 33.072,139.945 33.747,145.527 34.422,139.945 				"/>
			</g>
		</g>
		<g>
			<g>
				<polygon style="fill:#AEFFF1;" points="53.053,226.723 58.636,226.048 53.053,225.372 52.362,224.681 51.686,219.098 
					51.011,224.681 50.319,225.372 44.737,226.048 50.319,226.723 51.011,227.415 51.686,232.997 52.362,227.415 				"/>
			</g>
		</g>
		<g>
			<g>
				<polygon style="fill:#AEFFF1;" points="123.219,279.486 128.801,278.811 123.219,278.136 122.527,277.444 121.852,271.861 
					121.176,277.444 120.484,278.136 114.902,278.811 120.484,279.486 121.176,280.178 121.852,285.761 122.527,280.178 				"/>
			</g>
		</g>
		<g>
			<g>
				<polygon style="fill:#AEFFF1;" points="109.526,55.727 115.108,55.052 109.526,54.376 108.834,53.685 108.159,48.102 
					107.483,53.685 106.792,54.376 101.209,55.052 106.792,55.727 107.483,56.419 108.159,62.001 108.834,56.419 				"/>
			</g>
		</g>
		<path style="fill:#AEFFF1;" d="M619.613,61.236c0,1.082-0.877,1.958-1.958,1.958s-1.958-0.877-1.958-1.958
			s0.877-1.958,1.958-1.958S619.613,60.154,619.613,61.236z"/>
		<path style="fill:#AEFFF1;" d="M722.572,113.188c0,1.082-0.877,1.958-1.958,1.958s-1.958-0.877-1.958-1.958
			c0-1.082,0.877-1.958,1.958-1.958S722.572,112.107,722.572,113.188z"/>
		<path style="fill:#AEFFF1;" d="M702.689,90.384c0,1.082-0.877,1.958-1.958,1.958s-1.958-0.877-1.958-1.958
			c0-1.082,0.877-1.958,1.958-1.958S702.689,89.303,702.689,90.384z"/>
		<path style="fill:#AEFFF1;" d="M648.71,27.553c0,1.082-0.877,1.958-1.958,1.958c-1.082,0-1.958-0.877-1.958-1.958
			c0-1.082,0.877-1.958,1.958-1.958C647.834,25.594,648.71,26.471,648.71,27.553z"/>
		<path style="fill:#AEFFF1;" d="M596.186,90.384c0,1.082-0.877,1.958-1.958,1.958c-1.082,0-1.958-0.877-1.958-1.958
			c0-1.082,0.877-1.958,1.958-1.958C595.309,88.426,596.186,89.303,596.186,90.384z"/>
		<path style="fill:#AEFFF1;" d="M561.841,27.553c0,1.082-0.877,1.958-1.958,1.958s-1.958-0.877-1.958-1.958
			c0-1.082,0.877-1.958,1.958-1.958S561.841,26.471,561.841,27.553z"/>
		<path style="fill:#AEFFF1;" d="M665.217,464.964c0,1.082-0.877,1.958-1.958,1.958s-1.958-0.877-1.958-1.958
			s0.877-1.958,1.958-1.958S665.217,463.882,665.217,464.964z"/>
		<path style="fill:#AEFFF1;" d="M108.159,379.789c0,1.082-0.877,1.958-1.958,1.958c-1.082,0-1.959-0.877-1.959-1.958
			s0.877-1.958,1.959-1.958C107.282,377.831,108.159,378.708,108.159,379.789z"/>
		<circle style="fill:#AEFFF1;" cx="31.789" cy="450.729" r="1.958"/>
		<path style="fill:#AEFFF1;" d="M84.413,452.687c0,1.082-0.877,1.958-1.958,1.958c-1.082,0-1.958-0.877-1.958-1.958
			c0-1.082,0.877-1.958,1.958-1.958C83.536,450.729,84.413,451.605,84.413,452.687z"/>
		<path style="fill:#AEFFF1;" d="M502.972,113.188c0,1.082-0.877,1.958-1.958,1.958s-1.958-0.877-1.958-1.958
			c0-1.082,0.877-1.958,1.958-1.958S502.972,112.107,502.972,113.188z"/>
		<path style="fill:#AEFFF1;" d="M419.286,27.553c0,1.082-0.877,1.958-1.959,1.958c-1.082,0-1.958-0.877-1.958-1.958
			c0-1.082,0.877-1.958,1.958-1.958C418.409,25.594,419.286,26.471,419.286,27.553z"/>
		<path style="fill:#AEFFF1;" d="M35.706,27.553c0,1.082-0.877,1.958-1.958,1.958c-1.082,0-1.958-0.877-1.958-1.958
			c0-1.082,0.877-1.958,1.958-1.958C34.829,25.594,35.706,26.471,35.706,27.553z"/>
		<path style="fill:#AEFFF1;" d="M24.036,161.68c0,1.082-0.877,1.959-1.959,1.959c-1.082,0-1.958-0.877-1.958-1.959
			c0-1.082,0.877-1.958,1.958-1.958C23.159,159.722,24.036,160.599,24.036,161.68z"/>
		<path style="fill:#AEFFF1;" d="M57.371,25.594c0,1.082-0.877,1.958-1.958,1.958c-1.082,0-1.958-0.877-1.958-1.958
			s0.877-1.958,1.958-1.958C56.494,23.636,57.371,24.513,57.371,25.594z"/>
		<path style="fill:#AEFFF1;" d="M657.323,315.671c0,1.082-0.877,1.958-1.958,1.958c-1.082,0-1.959-0.877-1.959-1.958
			s0.877-1.958,1.959-1.958C656.447,313.712,657.323,314.589,657.323,315.671z"/>
		<path style="fill:#AEFFF1;" d="M715.819,314.123c0,1.082-0.877,1.958-1.958,1.958s-1.958-0.877-1.958-1.958
			c0-1.082,0.877-1.958,1.958-1.958S715.819,313.042,715.819,314.123z"/>
		<path style="fill:#AEFFF1;" d="M722.572,368.031c0,1.082-0.877,1.958-1.958,1.958s-1.958-0.877-1.958-1.958
			s0.877-1.958,1.958-1.958S722.572,366.949,722.572,368.031z"/>
		<path style="fill:#AEFFF1;" d="M676.251,266.516c0,1.082-0.877,1.958-1.958,1.958s-1.958-0.877-1.958-1.958
			c0-1.082,0.877-1.958,1.958-1.958S676.251,265.435,676.251,266.516z"/>
		<path style="fill:#AEFFF1;" d="M638.181,431.911c0,1.082-0.877,1.958-1.958,1.958c-1.082,0-1.959-0.877-1.959-1.958
			c0-1.082,0.877-1.959,1.959-1.959C637.305,429.952,638.181,430.829,638.181,431.911z"/>
		<path style="fill:#AEFFF1;" d="M155.73,30.974c0,1.082-0.877,1.958-1.958,1.958s-1.958-0.877-1.958-1.958
			c0-1.082,0.877-1.958,1.958-1.958S155.73,29.892,155.73,30.974z"/>
		<path style="fill:#AEFFF1;" d="M28.756,368.031c0,1.082-0.877,1.958-1.958,1.958c-1.082,0-1.958-0.877-1.958-1.958
			s0.877-1.958,1.958-1.958C27.879,366.072,28.756,366.949,28.756,368.031z"/>
		<path style="fill:#AEFFF1;" d="M388.442,39.562c0,1.082-0.877,1.958-1.958,1.958c-1.082,0-1.958-0.877-1.958-1.958
			s0.877-1.958,1.958-1.958C387.565,37.604,388.442,38.481,388.442,39.562z"/>
		<path style="fill:#AEFFF1;" d="M102.041,149.919c0,1.082-0.877,1.958-1.958,1.958c-1.082,0-1.959-0.877-1.959-1.958
			s0.877-1.958,1.959-1.958C101.164,147.96,102.041,148.837,102.041,149.919z"/>
		<path style="fill:#AEFFF1;" d="M41.319,187.124c0,1.082-0.877,1.958-1.958,1.958c-1.082,0-1.958-0.877-1.958-1.958
			s0.877-1.958,1.958-1.958C40.442,185.165,41.319,186.042,41.319,187.124z"/>
		<path style="fill:#AEFFF1;" d="M110.117,114.769c0,1.082-0.877,1.959-1.959,1.959c-1.082,0-1.958-0.877-1.958-1.959
			c0-1.082,0.877-1.958,1.958-1.958C109.24,112.81,110.117,113.687,110.117,114.769z"/>
		<path style="fill:#AEFFF1;" d="M37.664,278.811c0,1.082-0.877,1.958-1.958,1.958s-1.958-0.877-1.958-1.958
			s0.877-1.958,1.958-1.958S37.664,277.729,37.664,278.811z"/>
		<path style="fill:#AEFFF1;" d="M28.756,243.444c0,1.082-0.877,1.958-1.958,1.958c-1.082,0-1.958-0.877-1.958-1.958
			c0-1.082,0.877-1.958,1.958-1.958C27.879,241.486,28.756,242.363,28.756,243.444z"/>
		<path style="fill:#AEFFF1;" d="M155.73,271.861c0,1.082-0.877,1.958-1.958,1.958s-1.958-0.877-1.958-1.958
			s0.877-1.958,1.958-1.958S155.73,270.78,155.73,271.861z"/>
		<path style="fill:#AEFFF1;" d="M23.411,76.496c0,1.082-0.877,1.958-1.958,1.958c-1.082,0-1.958-0.877-1.958-1.958
			c0-1.082,0.877-1.958,1.958-1.958C22.535,74.538,23.411,75.415,23.411,76.496z"/>
		<path style="fill:#AEFFF1;" d="M585.027,193.689c0,1.082-0.877,1.958-1.958,1.958s-1.958-0.877-1.958-1.958
			s0.877-1.958,1.958-1.958S585.027,192.607,585.027,193.689z"/>
		<path style="fill:#AEFFF1;" d="M586.986,140.067c0,1.082-0.877,1.958-1.958,1.958c-1.082,0-1.958-0.877-1.958-1.958
			c0-1.082,0.877-1.959,1.958-1.959C586.109,138.108,586.986,138.985,586.986,140.067z"/>
		<path style="fill:#AEFFF1;" d="M494.601,167.162c0,1.082-0.877,1.958-1.958,1.958c-1.082,0-1.958-0.877-1.958-1.958
			c0-1.082,0.877-1.958,1.958-1.958C493.724,165.204,494.601,166.08,494.601,167.162z"/>
		<path style="fill:#AEFFF1;" d="M705.879,170.499c0,1.082-0.877,1.958-1.958,1.958c-1.082,0-1.958-0.877-1.958-1.958
			c0-1.082,0.877-1.958,1.958-1.958C705.002,168.541,705.879,169.418,705.879,170.499z"/>
		<path style="fill:#AEFFF1;" d="M670.01,194.772c0,1.082-0.877,1.958-1.958,1.958c-1.082,0-1.958-0.877-1.958-1.958
			c0-1.082,0.877-1.958,1.958-1.958C669.133,192.814,670.01,193.69,670.01,194.772z"/>
	</g>
</g>
</svg>
