<svg width="351" height="383" viewBox="0 0 351 383" fill="none" xmlns="http://www.w3.org/2000/svg">
<path d="M342.549 0.287598H200.217C195.876 0.287598 192.358 3.80216 192.358 8.1376V110.973C192.358 115.308 195.876 118.823 200.217 118.823H342.549C346.89 118.823 350.408 115.308 350.408 110.973V8.1376C350.408 3.80216 346.89 0.287598 342.549 0.287598Z" fill="#F2F6FB"/>
<path d="M216.122 109.6C208.221 109.6 201.816 103.138 201.816 95.1665C201.816 87.1951 208.221 80.7329 216.122 80.7329C224.022 80.7329 230.427 87.1951 230.427 95.1665C230.427 103.138 224.022 109.6 216.122 109.6ZM216.153 95.106C217.208 95.106 218.064 94.2537 218.064 93.2023C218.064 92.1509 217.208 91.2986 216.153 91.2986C215.097 91.2986 214.242 92.1509 214.242 93.2023C214.242 94.2537 215.097 95.106 216.153 95.106ZM216.153 96.0579C214.24 96.0579 212.689 97.6027 212.689 99.5084H219.617C219.617 97.6027 218.066 96.0579 216.153 96.0579Z" fill="#D8DEED"/>
<path d="M201.817 26.2382C201.817 25.3693 202.518 24.665 203.39 24.665H303.687C304.555 24.665 305.26 25.3705 305.26 26.2382V69.1824C305.26 70.0513 304.558 70.7556 303.687 70.7556H203.39C202.521 70.7556 201.817 70.0501 201.817 69.1824V26.2382ZM240.687 92.4781H319.636C321.219 92.4781 322.503 93.7603 322.503 95.3419C322.503 96.9236 321.219 98.2057 319.636 98.2057H240.687C239.104 98.2057 237.82 96.9236 237.82 95.3419C237.82 93.7603 239.104 92.4781 240.687 92.4781ZM240.687 101.786H333.989C335.572 101.786 336.856 103.068 336.856 104.649C336.856 106.231 335.572 107.513 333.989 107.513H240.687C239.104 107.513 237.82 106.231 237.82 104.649C237.82 103.068 239.104 101.786 240.687 101.786ZM240.687 83.1707H299.542C301.125 83.1707 302.409 84.4529 302.409 86.0345C302.409 87.6161 301.125 88.8983 299.542 88.8983H240.687C239.104 88.8983 237.82 87.6161 237.82 86.0345C237.82 84.4529 239.104 83.1707 240.687 83.1707ZM192.358 6.99138C192.358 3.28898 195.362 0.287598 199.067 0.287598H344.004C347.709 0.287598 350.713 3.28817 350.713 6.99138V13.6952H192.358V6.99138Z" fill="#E1E5F0"/>
<path d="M317.49 60.6733H336.131C338.918 60.6733 341.178 62.9303 341.178 65.7145C341.178 68.4987 338.918 70.7557 336.131 70.7557H317.49C314.703 70.7557 312.443 68.4987 312.443 65.7145C312.443 62.9303 314.703 60.6733 317.49 60.6733Z" fill="#A339FF"/>
<path d="M201.359 10.0387C202.959 10.0387 204.257 8.7426 204.257 7.14384C204.257 5.54508 202.959 4.24902 201.359 4.24902C199.758 4.24902 198.46 5.54508 198.46 7.14384C198.46 8.7426 199.758 10.0387 201.359 10.0387Z" fill="#FF5645"/>
<path d="M210.818 10.0387C212.418 10.0387 213.716 8.7426 213.716 7.14384C213.716 5.54508 212.418 4.24902 210.818 4.24902C209.217 4.24902 207.919 5.54508 207.919 7.14384C207.919 8.7426 209.217 10.0387 210.818 10.0387Z" fill="#FFCB3D"/>
<path d="M220.581 10.0387C222.182 10.0387 223.48 8.7426 223.48 7.14384C223.48 5.54508 222.182 4.24902 220.581 4.24902C218.98 4.24902 217.683 5.54508 217.683 7.14384C217.683 8.7426 218.98 10.0387 220.581 10.0387Z" fill="#3ABF7C"/>
<path d="M330.662 284.693V256.472C330.662 239.359 330.662 222.286 330.662 205.212V179.032C330.662 178.09 314.355 177.305 294.747 177.305H290.66C271.092 177.305 254.746 178.09 254.746 179.032V284.772C254.746 285.714 271.053 286.499 290.66 286.499H294.747C314.315 286.538 330.662 285.714 330.662 284.693Z" fill="#D8DEED"/>
<path d="M214.705 381.759L214.862 381.837C215.687 382.269 216.748 382.033 217.141 381.288L263.155 296.861C263.587 296.076 263.233 295.095 262.408 294.663L262.251 294.584C261.426 294.153 260.365 294.388 259.972 295.134L248.577 316.015C241.15 329.674 233.723 343.294 226.257 356.953L213.958 379.482C213.526 380.267 213.88 381.288 214.705 381.759Z" fill="#D8DEED"/>
<path d="M328.972 293.21H300.17C282.723 293.21 265.276 293.21 247.869 293.21H221.149C220.206 293.21 219.381 293.995 219.381 294.937V295.134C219.381 296.076 220.167 296.861 221.149 296.861H329.051C329.994 296.861 330.819 296.076 330.819 295.134V294.937C330.819 293.995 329.994 293.21 328.972 293.21Z" fill="#D8DEED"/>
<path d="M343 379.482L330.701 356.952C323.275 343.293 315.848 329.674 308.382 316.015L296.987 295.134C296.594 294.388 295.533 294.113 294.708 294.584L294.551 294.663C293.726 295.094 293.372 296.115 293.804 296.861L339.817 381.287C340.21 382.033 341.271 382.308 342.097 381.837L342.254 381.758C343.079 381.287 343.433 380.267 343 379.482Z" fill="#D8DEED"/>
<path d="M146.739 281.531C149.564 282.933 150.528 284.321 150.678 285.535C150.899 287.577 150.421 289.218 149.282 291.917C147.078 297.314 145.204 302.784 143.697 308.4C143.256 308.305 142.816 308.205 142.377 308.1C143.297 311.606 143.265 314.287 143.265 314.287C101.98 314.287 81.6814 314.287 82.37 314.287C83.4028 314.287 90.8685 294.094 117.213 292.042C117.97 291.982 118.705 291.944 119.418 291.926C119.58 291.256 119.856 290.652 120.359 289.737C119.255 287.035 118.405 280.701 118.117 278.063C118.117 277.955 118.154 277.846 118.191 277.738C118.339 277.449 118.746 277.304 119.08 277.449L127.419 281.531C128.843 281.011 130.35 280.538 131.939 280.065C133.444 279.605 134.949 279.214 136.364 278.854L139.349 271.106C139.459 270.809 139.826 270.624 140.12 270.772C140.23 270.809 140.304 270.883 140.377 270.994C141.922 273.172 145.718 278.724 146.739 281.531Z" fill="#FFCB3D"/>
<path d="M80.7872 311.8C80.4763 309.835 81.3057 308.64 83.2752 308.214C91.3978 307.764 98.6253 308.367 104.958 310.02C111.29 311.674 114.978 313.117 116.022 314.351H83.2752C81.8848 314.351 80.7872 313.225 80.7872 311.8ZM145.298 298.51C146.245 297.414 149.159 292.7 149.159 292.7C149.159 292.7 145.954 302.42 144.023 308.45C144.133 307.938 142.603 312.031 142.421 310.971V310.935C142.166 309.729 141.182 308.852 139.944 308.779C138.779 308.706 137.54 308.669 136.229 308.669C134.554 308.669 132.842 308.779 131.166 308.998L128.726 301.58C131.093 302.786 133.789 303.224 136.411 303.005C137.322 302.932 138.196 302.749 139.07 302.493C141.474 301.799 143.623 300.374 145.298 298.51ZM136.536 289.54C137.053 290.119 137.895 290.319 138.625 289.989C139.289 289.603 139.642 288.856 139.501 288.097C139.442 287.777 139.653 287.47 139.973 287.411C140.294 287.352 140.601 287.563 140.66 287.883C140.894 289.148 140.297 290.397 139.186 291.025L139.145 291.046C138.157 291.507 137.043 291.379 136.198 290.801C135.935 291.433 135.409 291.974 134.701 292.293C133.278 292.833 131.683 292.301 130.965 291.045C130.803 290.763 130.902 290.403 131.184 290.242C131.467 290.081 131.827 290.179 131.988 290.462C132.413 291.204 133.392 291.53 134.249 291.206C134.898 290.913 135.269 290.312 135.202 289.724C135.2 289.72 135.198 289.716 135.196 289.713C135.025 289.416 134.991 289.046 135.025 288.713C135.059 288.453 135.196 288.231 135.366 288.12C135.707 287.861 136.219 288.009 136.424 288.379C136.605 288.736 136.619 289.17 136.536 289.54ZM126.582 289.557C126.997 290.335 126.617 291.446 126.203 291.52C125.892 291.557 125.512 291.149 125.374 290.89C125.202 290.594 125.167 290.224 125.202 289.89C125.236 289.631 125.374 289.409 125.547 289.298C125.892 289.038 126.375 289.187 126.582 289.557ZM144.278 283.277C144.662 284.055 144.313 285.092 143.895 285.24C143.581 285.277 143.198 284.869 143.058 284.61C142.884 284.314 142.849 283.944 142.884 283.61C142.919 283.351 143.058 283.129 143.233 283.018C143.581 282.758 144.069 282.907 144.278 283.277Z" fill="#DE6903"/>
<path d="M193.36 378.844H255.136C256.061 378.844 256.811 379.593 256.811 380.517C256.811 381.441 256.061 382.19 255.136 382.19H193.36C192.435 382.19 191.685 381.441 191.685 380.517C191.685 379.593 192.435 378.844 193.36 378.844ZM262.651 378.844H301.709C302.634 378.844 303.383 379.593 303.383 380.517C303.383 381.441 302.634 382.19 301.709 382.19H262.651C261.726 382.19 260.976 381.441 260.976 380.517C260.976 379.593 261.726 378.844 262.651 378.844Z" fill="#FF5645"/>
<path d="M301.272 378.844H262.731L265.821 358.539H293.287L301.272 378.844ZM256.173 379.203C255.888 378.978 255.528 378.844 255.136 378.844H193.36C193.299 378.844 193.238 378.847 193.179 378.854C193.158 378.683 193.148 378.48 193.152 378.237C193.194 377.977 193.2 377.68 193.281 377.384C193.767 375.608 194.356 374.428 196.078 373.379C197.801 372.331 199.56 371.394 201.392 370.571C208.151 367.452 210.46 367.491 214.904 364.63C216.743 363.435 218.434 362.051 220.013 360.554C221.066 359.556 223.341 357.934 226.84 355.689L253.954 355.771L256.173 379.203Z" fill="#474961"/>
<path d="M300.955 291.466C300.893 309.655 300.267 333.818 300.051 342.129C300.014 343.287 300.165 346.419 297.893 348.394C297.25 348.973 296.606 349.211 295.394 349.722C294.448 350.131 290.207 351.357 281.725 352.038C281.195 352.072 280.627 352.106 280.059 352.072C271.313 351.765 269.155 351.22 265.785 350.267C263.551 349.654 261.923 347.747 261.695 345.5C260.635 335.592 257.72 308.591 257.492 306.207C257.19 303.177 256.924 299.738 256.697 295.822L256.577 293.989L246.098 289.864C250.474 306.597 254.72 323.929 258.515 341.159C258.704 342.003 259.045 343.903 258.06 345.697C256.243 349.11 251.51 348.934 240.189 350.271C226.861 351.854 221.295 353.508 218.265 350.13C217.243 349.04 216.902 347.914 216.789 347.386C214.025 333.7 200.318 293.98 194.979 265.483C194.979 265.413 194.941 265.377 194.941 265.307C193.237 256.125 199.636 247.47 209.14 246.309C212.283 245.922 215.123 245.549 218.265 245.162C219.218 245.051 220.168 245.019 221.107 245.061L268.021 244.248C295.846 244.006 292.015 240.78 300.716 244.779C306.516 247.445 310.465 255.034 312.564 267.546C313.315 277.059 309.445 285.033 300.955 291.466Z" fill="#8F4AFF"/>
<path opacity="0.176986" d="M301.003 291.43C301.006 290.48 301.008 289.546 301.008 288.632C301.008 281.55 301.046 275.455 301.122 271.539C301.197 268.441 301.765 251.416 294.42 247.875C293.776 247.568 293.132 247.33 291.845 246.887C290.823 246.547 285.522 244.776 278.706 245.049C274.276 245.219 267.612 245.491 262.122 249.748C254.549 255.638 254.738 264.934 254.814 266.432L256.626 294.009L246.153 289.885C243.236 278.729 240.26 267.838 237.321 257.42C235.313 250.33 228.601 245.422 221.239 245.059L268.022 244.248C295.846 244.006 292.015 240.78 300.716 244.779C306.516 247.445 310.466 255.034 312.564 267.546C313.314 277.042 309.46 285.003 301.003 291.43Z" fill="#444444"/>
<path d="M261.099 174.917C261.554 174.721 262.02 174.546 262.496 174.394L270.576 171.699C271.045 171.614 271.511 171.539 271.975 171.475C272.612 170.745 273.909 170.127 276.158 169.437C284.146 166.944 294.341 171.089 297.972 180.378C301.137 188.473 305.341 197.617 304.949 197.737C304.865 197.762 303.031 199.074 300.517 199.885C304.153 213.589 306.111 222.763 306.393 227.407C306.955 236.655 303.841 242.854 293.287 243.64C282.734 244.425 268.045 245.532 266.319 242.465C265.209 240.493 259.994 228.319 250.671 205.941C247.186 207.068 245.366 207.645 245.211 207.672C244.725 207.756 243.071 202.314 241.994 193.708C240.758 183.833 246.754 175.597 256.691 173.912C258.334 173.627 259.803 173.962 261.099 174.917Z" fill="#FF5645"/>
<path opacity="0.176986" d="M261.122 174.935C251.239 179.03 246.332 193.054 249.623 203.423C249.987 204.274 250.345 205.11 250.698 205.933C247.195 207.065 245.366 207.645 245.211 207.672C244.725 207.756 243.071 202.314 241.994 193.708C240.758 183.833 246.754 175.597 256.691 173.912C258.344 173.625 259.821 173.966 261.122 174.935Z" fill="#444444"/>
<path d="M244.808 176.09C244.808 176.09 244.089 178.915 247.913 178.134C251.737 177.354 252.835 176.982 252.835 176.982L251.851 174.417L244.808 176.09Z" fill="#482D1F"/>
<path d="M266.429 174.102L273.471 206.943L275.145 198.028C283.969 199.755 291.151 200.618 296.69 200.618C296.719 200.618 296.749 200.618 296.779 200.618C295.531 205.386 292.574 226.075 287.973 234.08C282.157 244.199 278.762 245.311 270.174 244.484C269.295 244.399 268.465 244.244 267.682 244.018C268.058 244.14 268.445 244.243 268.844 244.326L224.411 245.008L224.407 245.02L224.272 245.01L224.101 245.013C224.019 245.014 223.94 245.003 223.864 244.98L205.684 243.646C202.767 243.431 200.082 241.979 198.309 239.655L196.266 236.979C195.781 236.344 195.468 235.596 195.355 234.806C194.991 232.254 196.768 229.89 199.324 229.526L204.755 228.753C208.479 228.223 212.259 228.23 215.98 228.774L227.195 230.411C235.709 227.738 247.071 224.228 249.908 223.623L246.385 207.295L250.549 205.663C251.857 208.643 253.087 211.443 254.24 214.062C252.934 201.619 253.081 187.877 251.51 175.67L247.572 175.755C245.225 176.684 240.302 178.246 239.772 174.937C239.772 174.937 246.285 172.298 250.866 170.365L251.207 170.067C251.51 169.807 251.775 169.659 252.154 169.547C252.23 169.51 252.305 169.51 252.381 169.51L252.632 169.474C251.951 169.525 251.472 169.513 251.306 169.495C248.139 169.356 244.257 163.756 242.389 155.596C242.217 154.939 242.157 154.272 242.06 153.609L241.583 146.97C241.451 145.489 241.737 144.009 242.379 142.685C242.441 142.531 242.507 142.413 242.572 142.296C242.803 141.903 243.034 141.51 243.272 141.191C244.185 139.918 245.316 138.963 246.508 138.263C249.345 136.826 252.657 136.466 254.525 136.53C254.793 136.544 255.632 136.584 256.815 136.632C257.932 136.797 259.001 136.854 260.098 136.797C260.705 136.783 261.204 137.262 261.257 137.855L261.725 147.367C261.728 147.438 261.746 147.537 261.78 147.665C265.593 146.116 268.323 147 269.969 150.316C272.439 155.29 270.202 154.214 269.104 155.54C268.313 156.466 267.327 156.924 266.665 157.167C266.541 157.193 266.415 157.265 266.304 157.363L269.269 157.391L269.794 159.436L269.987 162.031L271.935 171.529C271.935 171.529 269.187 173.034 266.429 174.102ZM259.807 168.451L259.584 167.384C259.491 167.423 259.396 167.462 259.3 167.502C256.148 168.817 256.33 168.727 256.111 168.821C255.638 168.965 255.179 169.081 254.742 169.173L258.136 168.692L259.807 168.451ZM290.773 358.646H265.891L266.427 350.434C269.485 351.284 271.885 351.783 280.107 352.071C280.675 352.105 281.243 352.071 281.773 352.037C285.82 351.712 288.901 351.263 291.12 350.838L293.288 358.538L290.773 358.646ZM252.87 348.736L253.954 355.77H226.698L228.496 351.784C231.545 351.435 235.374 350.848 240.236 350.271C245.987 349.592 250.038 349.303 252.87 348.736Z" fill="#DB9E75"/>
<path d="M262.12 168.167L260.689 168.363L259.889 168.479C259.862 168.472 259.834 168.464 259.807 168.456L259.583 167.382L263.647 165.662C263.1 166.899 262.591 167.734 262.12 168.167Z" fill="#482D1F"/>
<path d="M244.788 154.792C244.923 155.452 245.17 156.513 244.911 157.021C244.49 157.841 243.011 156.176 243.125 154.898C243.192 154.37 243.437 154.125 243.738 154.099C244.225 154.02 244.67 154.317 244.788 154.792ZM252.835 153.392C252.97 154.052 253.217 155.113 252.958 155.621C252.537 156.44 251.058 154.776 251.172 153.498C251.239 152.97 251.484 152.725 251.785 152.699C252.272 152.62 252.717 152.917 252.835 153.392Z" fill="#482D1F"/>
<path d="M246.648 154.713L246.633 158.446C246.672 158.904 247.057 159.301 247.501 159.262C247.764 159.26 247.931 159.245 248.602 159.174C248.901 159.142 249.107 159.122 249.35 159.1C249.558 159.082 249.712 158.902 249.694 158.697C249.676 158.493 249.493 158.342 249.285 158.36C249.036 158.381 248.826 158.402 248.522 158.435C247.879 158.503 247.723 158.517 247.465 158.52C247.451 158.52 247.393 158.461 247.389 158.413L247.405 154.714C247.406 154.509 247.237 154.342 247.028 154.342C246.819 154.342 246.649 154.508 246.648 154.713Z" fill="#482D1F"/>
<path d="M250.11 161.202C250.368 161.105 250.986 160.791 251.028 160.414C251.022 160.34 251.05 160.225 251.009 160.192C250.841 160.019 250.364 160.21 249.695 160.379C248.504 160.668 247.486 160.755 247.486 160.755C247.486 160.755 247.882 161.356 248.087 161.525C248.541 161.933 249.709 161.385 250.11 161.202Z" fill="#482D1F"/>
<path d="M259.258 150.643L260.513 150.224C261.23 149.984 261.595 151.04 260.878 151.279L259.623 151.698L258.677 152.014C258.784 152.36 258.857 152.722 258.89 153.096C259.149 156 256.961 158.561 254.002 158.815C251.429 159.036 249.12 157.438 248.393 155.107L247.73 155.209L247.183 155.294C247.295 158.09 245.149 160.508 242.279 160.755C239.321 161.009 236.713 158.86 236.454 155.956C236.195 153.052 238.383 150.492 241.341 150.238C243.995 150.01 246.381 151.718 247.02 154.19L247.554 154.108L247.73 155.209C247.079 154.736 247.077 154.72 247.076 154.704L246.482 154.273L247.02 154.19C247.047 154.293 247.071 154.398 247.091 154.503C247.14 154.313 247.289 154.148 247.554 154.108L248.177 154.011C247.921 151.109 250.109 148.552 253.065 148.298C255.243 148.111 257.231 149.225 258.231 150.985L259.258 150.643ZM246.658 155.375C246.345 155.423 246.053 155.211 246.008 154.903C245.964 154.601 246.175 154.321 246.482 154.273L247.554 154.108L248.177 154.011C248.177 154.013 248.178 154.015 248.178 154.016C248.211 154.394 248.285 154.758 248.393 155.107L247.73 155.209L246.658 155.375ZM247.73 155.209C247.459 155.251 247.263 155.133 247.159 154.96L247.73 155.209ZM253.903 157.704C256.237 157.503 257.963 155.484 257.758 153.193C257.554 150.903 255.497 149.208 253.164 149.409C250.831 149.609 249.105 151.628 249.309 153.919C249.513 156.21 251.57 157.904 253.903 157.704ZM241.44 151.349C239.107 151.549 237.381 153.568 237.585 155.859C237.79 158.15 239.847 159.844 242.18 159.644C244.513 159.443 246.239 157.424 246.035 155.133C246.028 155.056 246.019 154.979 246.008 154.903C245.69 152.722 243.686 151.156 241.44 151.349Z" fill="#482D1F"/>
<path opacity="0.2" d="M268.822 244.326L224.389 245.008L224.385 245.02L224.25 245.01L224.079 245.013C223.997 245.014 223.918 245.003 223.842 244.98L205.662 243.646C202.745 243.431 200.06 241.979 198.287 239.655L196.244 236.979C195.759 236.344 195.446 235.596 195.333 234.806C194.969 232.254 196.746 229.89 199.302 229.526L204.733 228.753C208.457 228.223 212.237 228.23 215.958 228.774L227.173 230.411C235.687 227.738 247.049 224.228 249.886 223.623L246.364 207.295L250.528 205.663C251.911 208.817 253.208 211.77 254.419 214.519C254.63 216.155 254.875 217.784 255.161 219.402C257.957 234.007 261.197 242.735 268.822 244.326Z" fill="#8C2A00"/>
<path d="M273.078 207.139C272.989 206.844 273.16 206.534 273.461 206.446C273.762 206.359 274.078 206.527 274.167 206.822L277.915 219.238C278.005 219.533 277.833 219.844 277.532 219.931C277.231 220.019 276.915 219.85 276.826 219.555L273.078 207.139ZM296.801 201.073C296.487 201.071 296.235 200.82 296.237 200.512C296.24 200.204 296.496 199.956 296.81 199.958C298.39 199.97 299.874 199.744 301.262 199.28C301.559 199.181 301.882 199.337 301.983 199.629C302.084 199.92 301.925 200.237 301.628 200.336C300.117 200.84 298.507 201.086 296.801 201.073Z" fill="#482D1F"/>
<path d="M265.373 157.033C265.949 156.868 267.652 156.501 268.697 155.239C269.799 153.95 270.341 151.926 269.528 150.056C268.797 148.253 266.851 146.89 265.044 147.082C264.029 147.207 263.242 147.76 263.135 147.843C261.891 148.808 261.393 150.045 261.393 150.045L261.093 150.909C260.943 150.716 260.799 150.535 260.662 150.369C257.764 147.708 256.091 145.861 253.155 143.202C251.68 143.702 242.205 147.013 241.493 146.701C241.493 142.924 242.9 141.709 243.137 141.39C244.05 140.117 245.385 138.882 246.577 138.183C249.413 136.745 252.726 136.386 254.594 136.449C254.862 136.464 255.701 136.504 256.884 136.551C257.227 136.559 257.569 136.567 257.988 136.568C258.975 136.558 259.736 136.568 260.192 136.566C265.958 136.444 268.131 135.66 271.133 136.932C271.308 137.011 271.555 137.125 271.846 137.283C272.045 136.768 272.278 136.29 272.51 135.847C278.858 123.771 286.568 126.504 286.568 126.549C286.568 126.594 292.41 126.594 293.905 132.444C294.054 133.025 295.101 137.131 293.427 140.516C291.18 144.946 284.48 147.673 276.856 145.811C276.95 147.107 276.86 148.168 276.82 148.72C276.405 153.01 274.023 155.715 273.327 156.856C272.398 158.379 271.251 159.911 269.885 161.453C268.182 160.449 266.878 159.276 265.973 157.936C265.777 157.641 265.577 157.339 265.373 157.033Z" fill="#482D1F"/>
<path d="M189.892 234.896C194.166 230.725 202.891 227.455 217.308 235.695C219.507 236.91 218.705 240.731 216.268 240.725L191.149 240.556C189.261 240.568 188.467 236.299 189.892 234.896Z" fill="#474961"/>
<path d="M139.664 314.35H145.008C147.764 315.201 149.502 317.004 150.222 319.761C150.943 322.518 149.205 325.163 145.008 327.695L144.965 327.686L144.969 327.695H78.9548C74.7584 325.163 73.0205 322.518 73.7408 319.761C74.4612 317.004 76.1992 315.201 78.9548 314.35H139.664Z" fill="#3ABF7C"/>
<path d="M166.148 149.909H46.0656C41.3503 149.909 37.4995 146.422 37.4995 142.153V70.5303C37.4995 66.2607 41.3503 62.7739 46.0656 62.7739H166.148C170.864 62.7739 174.715 66.2607 174.715 70.5303V142.117C174.715 146.422 170.864 149.909 166.148 149.909Z" fill="#F2F6FB"/>
<path d="M37.5391 62.3046C37.5391 57.9681 41.0581 54.4526 45.3984 54.4526H166.816C171.157 54.4526 174.676 57.9702 174.676 62.3046V71.3301H37.5391V62.3046Z" fill="#E1E5F0"/>
<path d="M58.6598 103.123H73.788C75.0359 103.123 76.0475 104.133 76.0475 105.38C76.0475 106.626 75.0359 107.637 73.788 107.637H58.6598C57.412 107.637 56.4004 106.626 56.4004 105.38C56.4004 104.133 57.412 103.123 58.6598 103.123ZM58.6598 128.243H73.788C75.0359 128.243 76.0475 129.253 76.0475 130.5C76.0475 131.746 75.0359 132.757 73.788 132.757H58.6598C57.412 132.757 56.4004 131.746 56.4004 130.5C56.4004 129.253 57.412 128.243 58.6598 128.243ZM81.8433 103.123H96.9716C98.2194 103.123 99.231 104.133 99.231 105.38C99.231 106.626 98.2194 107.637 96.9716 107.637H81.8433C80.5955 107.637 79.5839 106.626 79.5839 105.38C79.5839 104.133 80.5955 103.123 81.8433 103.123ZM81.8433 128.243H96.9716C98.2194 128.243 99.231 129.253 99.231 130.5C99.231 131.746 98.2194 132.757 96.9716 132.757H81.8433C80.5955 132.757 79.5839 131.746 79.5839 130.5C79.5839 129.253 80.5955 128.243 81.8433 128.243ZM105.027 103.123H120.155C121.403 103.123 122.415 104.133 122.415 105.38C122.415 106.626 121.403 107.637 120.155 107.637H105.027C103.779 107.637 102.767 106.626 102.767 105.38C102.767 104.133 103.779 103.123 105.027 103.123ZM105.027 128.243H120.155C121.403 128.243 122.415 129.253 122.415 130.5C122.415 131.746 121.403 132.757 120.155 132.757H105.027C103.779 132.757 102.767 131.746 102.767 130.5C102.767 129.253 103.779 128.243 105.027 128.243ZM58.6598 90.563H86.7551C88.0029 90.563 89.0145 91.5734 89.0145 92.8199C89.0145 94.0663 88.0029 95.0767 86.7551 95.0767H58.6598C57.412 95.0767 56.4004 94.0663 56.4004 92.8199C56.4004 91.5734 57.412 90.563 58.6598 90.563ZM122.316 90.563H153.948C155.196 90.563 156.207 91.5734 156.207 92.8199C156.207 94.0663 155.196 95.0767 153.948 95.0767H122.316C121.068 95.0767 120.057 94.0663 120.057 92.8199C120.057 91.5734 121.068 90.563 122.316 90.563ZM122.316 115.683H153.948C155.196 115.683 156.207 116.693 156.207 117.94C156.207 119.186 155.196 120.197 153.948 120.197H122.316C121.068 120.197 120.057 119.186 120.057 117.94C120.057 116.693 121.068 115.683 122.316 115.683ZM94.8104 115.683H100.508C101.756 115.683 102.767 116.693 102.767 117.94C102.767 119.186 101.756 120.197 100.508 120.197H94.8104C93.5626 120.197 92.551 119.186 92.551 117.94C92.551 116.693 93.5626 115.683 94.8104 115.683ZM108.563 90.563H114.261C115.509 90.563 116.52 91.5734 116.52 92.8199C116.52 94.0663 115.509 95.0767 114.261 95.0767H108.563C107.315 95.0767 106.304 94.0663 106.304 92.8199C106.304 91.5734 107.315 90.563 108.563 90.563ZM128.21 103.123H153.948C155.196 103.123 156.207 104.133 156.207 105.38C156.207 106.626 155.196 107.637 153.948 107.637H128.21C126.963 107.637 125.951 106.626 125.951 105.38C125.951 104.133 126.963 103.123 128.21 103.123Z" fill="#E1E5F0"/>
<path d="M58.6598 115.683H86.7551C88.0029 115.683 89.0145 116.694 89.0145 117.94C89.0145 119.186 88.0029 120.197 86.7551 120.197H58.6598C57.412 120.197 56.4004 119.186 56.4004 117.94C56.4004 116.694 57.412 115.683 58.6598 115.683ZM108.563 115.683H114.261C115.509 115.683 116.52 116.694 116.52 117.94C116.52 119.186 115.509 120.197 114.261 120.197H108.563C107.316 120.197 106.304 119.186 106.304 117.94C106.304 116.694 107.316 115.683 108.563 115.683Z" fill="#A339FF"/>
<path d="M94.8102 90.563H100.508C101.756 90.563 102.767 91.5734 102.767 92.8199C102.767 94.0663 101.756 95.0767 100.508 95.0767H94.8102C93.5624 95.0767 92.5508 94.0663 92.5508 92.8199C92.5508 91.5734 93.5624 90.563 94.8102 90.563ZM128.21 128.243H153.948C155.196 128.243 156.207 129.253 156.207 130.5C156.207 131.746 155.196 132.757 153.948 132.757H128.21C126.962 132.757 125.951 131.746 125.951 130.5C125.951 129.253 126.962 128.243 128.21 128.243Z" fill="#FF5645"/>
<path d="M57.579 42.2852H8.46136C4.12105 42.2852 0.602539 45.7997 0.602539 50.1352V74.8627C0.602539 79.1981 4.12105 82.7127 8.46136 82.7127H57.579C61.9193 82.7127 65.4378 79.1981 65.4378 74.8627V50.1352C65.4378 45.7997 61.9193 42.2852 57.579 42.2852Z" fill="#59DCBE"/>
<path d="M21.5619 53.2754L8.46143 63.8042L22.2144 71.3304" stroke="white" stroke-width="4.35294" stroke-linecap="round" stroke-linejoin="round"/>
<path d="M43.252 71.3304L56.4004 62.3224L42.6475 53.2754" stroke="white" stroke-width="4.35294" stroke-linecap="round" stroke-linejoin="round"/>
<path d="M29.2871 75.7988L35.2726 49.4971" stroke="white" stroke-width="4.35294" stroke-linecap="round" stroke-linejoin="round"/>
<path d="M71.9216 326.854C71.9865 326.85 72.052 326.848 72.1181 326.848H150.313C151.832 326.848 153.064 328.078 153.064 329.595C153.064 331.112 151.832 332.343 150.313 332.343H72.1181C72.052 332.343 71.9865 332.34 71.9216 332.336V379.639C71.9216 381.156 70.6901 382.386 69.171 382.386C67.6519 382.386 66.4204 381.156 66.4204 379.639L66.4204 243.441C66.4204 242.119 67.3553 241.015 68.6009 240.753C68.9532 240.589 69.3461 240.498 69.7604 240.498H303.56C305.08 240.498 306.311 241.728 306.311 243.245C306.311 244.762 305.08 245.993 303.56 245.993H71.9216V326.854Z" fill="#D8DEED"/>
<path d="M126.216 234.611L129.995 219.381H101.628C98.6813 219.381 96.2446 217.144 96.2446 214.435V171.3C96.2058 168.552 98.6027 166.315 101.589 166.315H187.918C190.865 166.315 193.302 168.552 193.302 171.26V214.435C193.302 217.144 190.865 219.381 187.918 219.381H153.349L151.789 234.611H162.024C163.596 234.611 164.814 235.867 164.814 237.398C164.814 238.968 163.556 240.184 162.024 240.184H118.211C116.639 240.184 115.421 238.928 115.421 237.398C115.343 235.867 116.639 234.611 118.211 234.611H126.216Z" fill="#474961"/>
<path fill-rule="evenodd" clip-rule="evenodd" d="M154.52 208.281L154.637 234.65H151.819L154.52 208.281Z" fill="white"/>
</svg>
